<?xml version="1.0" encoding="UTF-8"?>
<svg id="Layer_2" data-name="Layer 2" xmlns="http://www.w3.org/2000/svg" viewBox="0 0 249.74 160.19">
  <defs>
    <style>
      .cls-1 {
        stroke-width: 1.31px;
      }

      .cls-1, .cls-2, .cls-3 {
        fill: none;
        stroke: #f8fbfd;
      }

      .cls-2 {
        stroke-width: 2.19px;
      }

      .cls-3 {
        stroke-width: 2.93px;
      }

      .cls-4 {
        fill: #00aeef;
        stroke: #191919;
        stroke-width: .5px;
      }
    </style>
  </defs>
  <g id="Layer_1-2" data-name="Layer 1">
    <g>
      <path class="cls-4" d="M47.73,100.69c.58.46.67,1.31.21,1.88l-8.11,10.17c-.46.58-1.3.67-1.88.21l-2.78-2.21c-.58-.46-.67-1.31-.21-1.88l8.12-10.17c.46-.57,1.3-.67,1.88-.21l2.78,2.21Z"/>
      <path class="cls-4" d="M39.91,71.67c.25.69-.11,1.46-.8,1.71l-12.23,4.45c-.7.25-1.46-.1-1.71-.8l-1.22-3.34c-.25-.69.1-1.46.8-1.71l12.23-4.45c.69-.25,1.46.11,1.72.8l1.21,3.34Z"/>
      <path class="cls-4" d="M32.29,98.83c-.37.64-1.19.86-1.83.48l-11.25-6.54c-.64-.37-.85-1.19-.49-1.83l1.79-3.07c.37-.64,1.19-.86,1.83-.48l11.25,6.54c.64.37.86,1.19.49,1.83l-1.79,3.07Z"/>
      <polygon class="cls-4" points="63.27 93.28 60 95.04 56.84 93.08 56.96 89.37 60.23 87.61 63.39 89.57 63.27 93.28"/>
      <polygon class="cls-4" points="44.62 91.59 41.34 93.35 38.18 91.39 38.3 87.68 41.57 85.92 44.73 87.88 44.62 91.59"/>
      <polygon class="cls-4" points="46.43 53.27 43.16 55.03 39.99 53.07 40.11 49.36 43.39 47.61 46.54 49.56 46.43 53.27"/>
      <path class="cls-3" d="M248.11,1.95c-.31-.49-.96-.64-1.46-.32L19.04,139.6c-.49.31-.64.96-.33,1.45h0c.31.49.96.64,1.46.33L247.78,3.41c.49-.31.64-.97.33-1.46h0Z"/>
      <path class="cls-2" d="M172.46,54.92c-.23-.37-.72-.48-1.09-.25L1.46,157.63c-.37.23-.48.72-.24,1.09h0c.24.37.72.48,1.09.25L172.23,56.01c.37-.23.48-.72.24-1.09h0Z"/>
      <path class="cls-1" d="M133.34,63.99c-.14-.22-.43-.29-.65-.15L30.8,125.58c-.22.14-.28.43-.15.65h0c.15.22.43.29.66.15l101.89-61.74c.22-.14.29-.43.14-.66h0Z"/>
    </g>
  </g>
</svg>