<?xml version="1.0" encoding="UTF-8"?>
<svg id="Layer_2" data-name="Layer 2" xmlns="http://www.w3.org/2000/svg" viewBox="0 0 251.46 67.51">
  <defs>
    <style>
      .cls-1 {
        fill: #010101;
      }

      .cls-2, .cls-3 {
        fill: #231f20;
      }

      .cls-4 {
        fill: #ffcd05;
        fill-rule: evenodd;
      }

      .cls-3 {
        stroke: #231f20;
        stroke-miterlimit: 10;
      }
    </style>
  </defs>
  <g id="Layer_1-2" data-name="Layer 1">
    <g>
      <g>
        <path class="cls-2" d="M0,3.17h14.52v.5H.55v14.77h13.42v.51H.55v15.44h-.55V3.17Z"/>
        <path class="cls-2" d="M22,3.17h.55v31.22h-.55V3.17Z"/>
        <path class="cls-2" d="M29.99,33.84v.04h18.72v.5h-19.73L48.76,3.71v-.04h-18.34v-.5h19.31l-19.73,30.67Z"/>
        <path class="cls-2" d="M53.17,33.84v.04h18.72v.5h-19.73L71.94,3.71v-.04h-18.34v-.5h19.31l-19.73,30.67Z"/>
      </g>
      <g>
        <path class="cls-2" d="M148.1,33.73h9.51c6.69,0,10.18,3.49,10.18,8.12,0,3.74-2.06,5.97-4.75,7.03,3.83,1.18,5.76,3.91,5.76,7.53,0,4.71-3.53,8.62-10.69,8.62h-10.01v-31.3ZM157.6,47.45c4.08,0,6.31-2.23,6.31-5.22s-2.27-4.96-6.02-4.96h-5.93v10.18h5.64ZM158.02,61.5c4.46,0,6.86-2.27,6.86-5.43,0-3.45-2.82-5.39-6.65-5.39h-6.27v10.81h6.06Z"/>
        <path class="cls-2" d="M175.02,53.21v-19.48h3.91v19.69c0,5.26,2.99,8.54,7.83,8.54s8.16-3.28,8.16-8.62v-19.61h3.91v19.44c0,7.4-4.71,12.5-12.07,12.5s-11.74-5.09-11.74-12.45Z"/>
        <path class="cls-2" d="M210.02,61.37h15.52v3.66h-21.88l16.58-27.64h-15.27v-3.66h21.63l-16.58,27.64Z"/>
        <path class="cls-2" d="M234.88,61.37h15.52v3.66h-21.88l16.58-27.64h-15.27v-3.66h21.62l-16.58,27.64Z"/>
      </g>
      <g>
        <path class="cls-3" d="M169.25,25.17l-1.18-2.91h-3.64l-1.18,2.91h-.14l3.08-7.58h.12l3.08,7.58h-.14ZM168.01,22.14l-1.77-4.36-1.77,4.36h3.53Z"/>
        <path class="cls-3" d="M176.69,25.24c-1.78,0-3.66-1.37-3.66-3.87s1.86-3.85,3.57-3.85c.8,0,1.46.18,2.01.52v.14c-.54-.36-1.22-.54-2.01-.54-1.64,0-3.44,1.31-3.44,3.73s1.82,3.75,3.52,3.75c.71,0,1.37-.17,1.93-.54v.14c-.56.35-1.23.52-1.93.52Z"/>
        <path class="cls-3" d="M179.61,22.5c0-1.71,1.21-2.75,2.49-2.75s2.49,1.04,2.49,2.75-1.23,2.75-2.49,2.75-2.49-1.04-2.49-2.75ZM182.1,25.12c1.21,0,2.36-.98,2.36-2.62s-1.15-2.62-2.36-2.62-2.36.98-2.36,2.62,1.15,2.62,2.36,2.62Z"/>
        <path class="cls-3" d="M185.84,22.5c0-1.71,1.16-2.75,2.42-2.75.99,0,1.95.62,2.28,1.82h.01v-4.47h.13v8.08h-.11v-1.78h-.02c-.33,1.23-1.29,1.85-2.28,1.85-1.26,0-2.43-1.04-2.43-2.75ZM188.27,25.12c1.18,0,2.29-.97,2.29-2.62s-1.09-2.62-2.3-2.62-2.29.98-2.29,2.62,1.11,2.62,2.3,2.62Z"/>
        <path class="cls-3" d="M192.84,17.57c.1,0,.18.08.18.18s-.08.18-.18.18-.18-.08-.18-.18.08-.18.18-.18ZM192.76,19.82h.13v5.35h-.13v-5.35Z"/>
        <path class="cls-3" d="M198.8,21.57v3.6h-.13v-3.6c0-1.07-.66-1.7-1.68-1.7s-1.87.57-1.87,1.66v3.64h-.13v-5.35h.11v1.09h.02c.28-.76,1-1.16,1.87-1.16,1.09,0,1.82.68,1.82,1.82Z"/>
        <path class="cls-3" d="M205,21.56h.01v-1.74h.12v5.41c0,1.72-1.06,2.26-2.24,2.26-.66,0-1.4-.11-2.05-.59v-.15c.64.49,1.4.62,2.05.62,1.1,0,2.1-.48,2.1-2.13v-1.9h-.01c-.32,1.16-1.26,1.78-2.23,1.78-1.24,0-2.39-1.02-2.39-2.68s1.14-2.69,2.38-2.69c.97,0,1.93.61,2.25,1.81ZM202.76,24.99c1.16,0,2.25-.95,2.25-2.55s-1.07-2.56-2.26-2.56-2.25.96-2.25,2.56,1.09,2.55,2.26,2.55Z"/>
        <path class="cls-3" d="M210.49,17.59h1.44c1.56,0,2.61.81,2.61,2.21s-1.04,2.28-2.62,2.28h-1.3v3.09h-.13v-7.58ZM211.92,21.95c1.51,0,2.49-.77,2.49-2.15s-.99-2.08-2.48-2.08h-1.31v4.24h1.3Z"/>
        <path class="cls-3" d="M216.04,19.82h.11v1.17h.02c.26-.79.95-1.22,1.6-1.22.09,0,.23.01.32.02v.12c-.07-.01-.2-.02-.32-.02-.76,0-1.56.6-1.6,1.65v3.61h-.13v-5.35Z"/>
        <path class="cls-3" d="M218.51,22.5c0-1.71,1.21-2.75,2.49-2.75s2.49,1.04,2.49,2.75-1.23,2.75-2.49,2.75-2.49-1.04-2.49-2.75ZM221.01,25.12c1.21,0,2.36-.98,2.36-2.62s-1.15-2.62-2.36-2.62-2.36.98-2.36,2.62,1.15,2.62,2.36,2.62Z"/>
        <path class="cls-3" d="M225.18,24.68v-4.86h.13v4.86c0,1.29-.33,2.09-.85,2.74h-.17c.58-.65.89-1.51.89-2.74ZM225.26,17.57c.1,0,.18.08.18.18s-.08.18-.18.18-.18-.08-.18-.18.08-.18.18-.18Z"/>
        <path class="cls-3" d="M227,22.5c0-1.71,1.16-2.75,2.41-2.75,1.13,0,2.16.88,2.16,2.62,0,.06-.01.13-.01.13h-4.43c0,1.65,1.02,2.61,2.37,2.61.69,0,1.41-.24,1.99-.78v.15c-.58.5-1.31.75-1.99.75-1.42,0-2.5-1.02-2.5-2.75ZM231.44,22.38c0-1.68-.97-2.51-2.03-2.51-1.14,0-2.23.94-2.28,2.51h4.31Z"/>
        <path class="cls-3" d="M235.33,25.12c.4,0,.95-.09,1.43-.43v.15c-.48.31-1.02.4-1.43.4-1.35,0-2.52-1.1-2.52-2.75s1.14-2.75,2.5-2.75c.4,0,.94.08,1.45.38v.14c-.51-.32-1.06-.4-1.45-.4-1.29,0-2.37,1.07-2.37,2.62s1.1,2.62,2.39,2.62Z"/>
        <path class="cls-3" d="M238.52,19.82h1.63v.12h-1.63v3.71c0,1.1.58,1.46,1.39,1.46.15,0,.28-.01.42-.04v.12c-.08.02-.26.04-.43.04-.87,0-1.51-.42-1.51-1.56v-3.73h-.83v-.12h.83v-1.28h.13v1.28Z"/>
      </g>
      <path class="cls-1" d="M91.65,29.33h37.54c1.48,0,2.81-.6,3.79-1.58.98-.98,1.58-2.31,1.58-3.79s-.6-2.83-1.58-3.8c-.98-.98-2.31-1.58-3.79-1.58h-37.54c-1.48,0-2.81.6-3.79,1.58s-1.58,2.31-1.58,3.8.6,2.81,1.58,3.79,2.31,1.58,3.79,1.58h0ZM160.61,0h2.12c1.08,0,1.95.89,1.95,1.95h0c0,1.08-.87,1.95-1.95,1.95h-2.12c-1.07,0-1.95-.87-1.95-1.95h0c0-1.07.89-1.95,1.95-1.95h0ZM149.64,23.44h2.12c1.07,0,1.95.87,1.95,1.95h0c0,1.07-.89,1.95-1.95,1.95h-2.12c-1.08,0-1.95-.89-1.95-1.95h0c0-1.08.87-1.95,1.95-1.95h0ZM138.15,23.44h2.31c1.33,0,2.26.87,2.26,1.95h0c0,1.07-.89,1.95-1.95,1.95h-2.94c-1.07,0-1.95.87-1.95,1.95h0c0,1.07.89,1.95,1.95,1.95h1.71c.33.24.66.53.95.82,1.67,1.67,2.72,4,2.72,6.55s-1.05,4.88-2.72,6.57c-1.68,1.67-4.01,2.72-6.57,2.72h-1.18c1.09,1.52,1.72,3.38,1.72,5.38,0,2.54-1.04,4.87-2.72,6.55-1.68,1.68-4,2.72-6.55,2.72h-29.53c-2.56,0-4.87-1.04-6.55-2.72-1.68-1.68-2.72-4.01-2.72-6.55,0-2,.64-3.87,1.72-5.38h-1.18c-2.56,0-4.88-1.05-6.55-2.72-1.68-1.68-2.74-4.01-2.74-6.57s1.05-4.88,2.74-6.55c1.09-1.1,2.47-1.93,4-2.38-1.25-1.58-1.99-3.57-1.99-5.73,0-2.56,1.04-4.88,2.72-6.57.96-.96,2.13-1.71,3.43-2.18-1.34-1.61-2.15-3.67-2.15-5.92,0-2.56,1.04-4.88,2.72-6.57,1.68-1.67,4-2.72,6.55-2.72h56.1c1.07,0,1.95.89,1.95,1.95h0c0,1.08-.89,1.95-1.95,1.95h-19.02c-1.08,0-1.95.89-1.95,1.95h0c0,1.08.87,1.95,1.95,1.95h15.35c1.07,0,1.95.87,1.95,1.95h0c0,1.08-.89,1.95-1.95,1.95h-14.81c-1.08,0-1.95.87-1.95,1.95h0c0,1.08.87,1.95,1.95,1.95h11.15c1.07,0,1.95.87,1.95,1.95h0c0,1.07-.89,1.95-1.95,1.95h-7.09c-1.07,0-1.95.87-1.95,1.95h0c0,1.07.89,1.95,1.95,1.95h.81ZM153.3,15.62h2.11c1.08,0,1.95.87,1.95,1.95h0c0,1.07-.87,1.95-1.95,1.95h-2.11c-1.08,0-1.95-.89-1.95-1.95h0c0-1.08.87-1.95,1.95-1.95h0ZM156.95,7.81h2.12c1.08,0,1.95.87,1.95,1.95h0c0,1.08-.87,1.95-1.95,1.95h-2.12c-1.07,0-1.95-.87-1.95-1.95h0c0-1.08.89-1.95,1.95-1.95h0ZM95.66,47.91c-1.48,0-2.81.6-3.79,1.58s-1.58,2.33-1.58,3.8.6,2.81,1.58,3.79,2.31,1.58,3.79,1.58h29.53c1.48,0,2.81-.6,3.79-1.58.98-.98,1.58-2.31,1.58-3.79s-.6-2.83-1.58-3.8-2.31-1.58-3.79-1.58h-29.53ZM125.19,3.91h-29.53c-1.48,0-2.81.6-3.79,1.58s-1.58,2.33-1.58,3.8.6,2.83,1.58,3.8,2.31,1.58,3.79,1.58h29.53c1.48,0,2.81-.6,3.79-1.58s1.58-2.33,1.58-3.8-.6-2.83-1.58-3.8-2.31-1.58-3.79-1.58h0ZM133.92,33.24h-47c-1.48,0-2.83.6-3.8,1.58-.98.98-1.58,2.33-1.58,3.8s.6,2.83,1.58,3.8c.98.98,2.33,1.58,3.8,1.58h47c1.48,0,2.83-.6,3.8-1.58.98-.98,1.58-2.33,1.58-3.8s-.6-2.83-1.58-3.8c-.98-.98-2.33-1.58-3.8-1.58h0Z"/>
      <path class="cls-4" d="M116.08,41.58h17.67c.9,0,1.74-.37,2.38-1.01.63-.64,1-1.51,1-2.42s-.36-1.78-1-2.43c-.63-.64-1.48-1-2.38-1h-2.42c-4.7,0-1.65-7.01.15-8.84.63-.64,1-1.51,1-2.42s-.36-1.78-1-2.42c-.63-.65-1.48-1.01-2.38-1.01h-21.6c-5.43,0-5.43-7.83,0-7.83h17.66c.9,0,1.74-.37,2.38-1.01.63-.64,1-1.51,1-2.42s-.36-1.78-1-2.42c-.63-.65-1.48-1.01-2.38-1.01h-29.01c-.9,0-1.74.36-2.38,1.01-.64.64-1,1.51-1,2.42s.35,1.78,1,2.42c.63.64,1.48,1.01,2.38,1.01,5.36,0,5.36,7.83,0,7.83h-3.94c-.9,0-1.74.36-2.38,1.01-.63.64-1,1.51-1,2.42s.36,1.78,1,2.42c.63.64,1.48,1.01,2.38,1.01h29.16c5.48,0,5.63,7.83.34,7.83h-34.15c-.9,0-1.74.36-2.38,1-.63.65-1,1.52-1,2.43s.36,1.78,1,2.42c.63.64,1.48,1.01,2.38,1.01h6.91c4.65,0,3.83,7.39,1.11,7.87-.68.12-1.31.46-1.8.96-.64.65-1,1.52-1,2.43s.35,1.78,1,2.42c.63.64,1.48,1.01,2.38,1.01h23.92c2.47,0,1.99,4.51,1.3,6.2-2.76,6.71,6.26,6.71,3.51,0-.67-1.63-1.29-5.73,1.05-6.3.6-.14,1.16-.46,1.61-.91.63-.64,1-1.51,1-2.42s-.36-1.78-1-2.43c-.63-.64-1.48-1-2.38-1h-16.89c-4.44,0-5.92-7.75-2.95-7.75h5.2c2.5,0,3.73,0,5.57-.08h0Z"/>
    </g>
  </g>
</svg>