<?xml version="1.0" encoding="UTF-8"?>
<svg id="Layer_2" data-name="Layer 2" xmlns="http://www.w3.org/2000/svg" viewBox="0 0 228.17 148.95">
  <defs>
    <style>
      .cls-1 {
        fill: #f8fbfd;
      }
    </style>
  </defs>
  <g id="Layer_1-2" data-name="Layer 1">
    <g>
      <path class="cls-1" d="M198.56,29.6c8.19,0,15.17-2.89,20.95-8.66,5.77-5.77,8.66-12.75,8.66-20.94h-43.94c-20.73,0-38.48,7.2-53.25,21.6-8.36,8.15-14.35,17.31-17.97,27.48h-13.38c-8.31,0-15.36,2.87-21.13,8.62-5.77,5.75-8.66,12.74-8.66,20.99h38.2c-1.64,7.16-5.13,13.52-10.47,19.1-7.72,8.06-17.25,12.09-28.6,12.09s-20.92-3.97-28.69-11.92c-7.78-7.94-11.66-17.59-11.66-28.94s3.89-21.05,11.66-29.11c7.77-8.06,17.34-12.09,28.69-12.09h13.11c7.49,0,13.88-2.64,19.15-7.92,5.28-5.28,7.92-11.66,7.92-19.15h-40.18c-18.96,0-35.19,6.64-48.69,19.92C6.75,33.93,0,50.05,0,69.01s6.75,35.02,20.26,48.18c13.51,13.17,29.74,19.75,48.69,19.75,14.98,0,28.27-4.3,39.87-12.86v24.87c8.56,0,15.92-3.07,22.06-9.22,6.14-6.14,9.22-13.5,9.22-22.06v-43.38c0-12.41,4.25-22.96,12.75-31.65,8.5-8.69,18.96-13.03,31.37-13.03h14.33Z"/>
      <path class="cls-1" d="M160.41,66.05c-2.79,2.88-4.19,6.43-4.19,10.68s1.43,7.59,4.28,10.4c2.85,2.81,6.33,4.21,10.43,4.21h24.76c8.31,0,15.36-2.87,21.13-8.62,5.77-5.75,8.66-12.74,8.66-20.99h-54.55c-4.22,0-7.73,1.44-10.52,4.31Z"/>
    </g>
  </g>
</svg>