<?xml version="1.0" encoding="UTF-8"?>
<svg id="Layer_2" data-name="Layer 2" xmlns="http://www.w3.org/2000/svg" xmlns:xlink="http://www.w3.org/1999/xlink" viewBox="0 0 260.76 111.85">
  <defs>
    <style>
      .cls-1 {
        fill: url(#Blue);
      }

      .cls-2 {
        fill: url(#Blue-2);
      }

      .cls-3 {
        fill: #f8fbfd;
      }

      .cls-4 {
        fill: #a7a9ac;
      }
    </style>
    <linearGradient id="Blue" x1="38.13" y1="45.63" x2="135.37" y2="45.63" gradientUnits="userSpaceOnUse">
      <stop offset="0" stop-color="#33c4f2"/>
      <stop offset=".5" stop-color="#27ace3"/>
      <stop offset="1" stop-color="#1e94d2"/>
    </linearGradient>
    <linearGradient id="Blue-2" data-name="Blue" y1="70.55" y2="70.55" xlink:href="#Blue"/>
  </defs>
  <g id="Layer_1-2" data-name="Layer 1">
    <g>
      <path class="cls-3" d="M150.4,64.13l-1.84-4.52h-5.64l-1.84,4.52h-.22l4.79-11.76h.19l4.79,11.76h-.22ZM148.48,59.42l-2.74-6.77-2.74,6.77h5.49Z"/>
      <path class="cls-3" d="M161.94,64.24c-2.76,0-5.68-2.12-5.68-6.01s2.89-5.98,5.55-5.98c1.24,0,2.27.29,3.12.81v.22c-.84-.55-1.89-.84-3.12-.84-2.55,0-5.34,2.03-5.34,5.79s2.82,5.82,5.47,5.82c1.11,0,2.12-.27,3-.84v.22c-.87.54-1.9.81-3,.81Z"/>
      <path class="cls-3" d="M166.48,59.98c0-2.65,1.89-4.26,3.87-4.26s3.87,1.62,3.87,4.26-1.9,4.26-3.87,4.26-3.87-1.62-3.87-4.26ZM170.35,64.05c1.87,0,3.66-1.52,3.66-4.07s-1.79-4.07-3.66-4.07-3.66,1.52-3.66,4.07,1.79,4.07,3.66,4.07Z"/>
      <path class="cls-3" d="M176.15,59.98c0-2.65,1.81-4.26,3.76-4.26,1.54,0,3.03.97,3.53,2.82h.02v-6.94h.21v12.54h-.17l-.02-2.76h-.02c-.51,1.9-2,2.87-3.53,2.87-1.95,0-3.77-1.62-3.77-4.26ZM179.93,64.05c1.84,0,3.55-1.51,3.55-4.07s-1.7-4.07-3.57-4.07-3.55,1.52-3.55,4.07,1.73,4.07,3.57,4.07Z"/>
      <path class="cls-3" d="M187.02,52.33c.16,0,.29.13.29.29s-.13.29-.29.29-.29-.13-.29-.29.13-.29.29-.29ZM186.9,55.82h.21v8.31h-.21v-8.31Z"/>
      <path class="cls-3" d="M196.27,58.53v5.6h-.21v-5.6c0-1.66-1.03-2.63-2.62-2.63s-2.9.89-2.9,2.58v5.64h-.21v-8.31h.17l.02,1.7h.02c.43-1.17,1.55-1.81,2.9-1.81,1.7,0,2.82,1.06,2.82,2.82Z"/>
      <path class="cls-3" d="M205.9,58.52h.02l.02-2.7h.17v8.4c0,2.66-1.65,3.5-3.47,3.5-1.03,0-2.17-.17-3.19-.92v-.24c1,.76,2.17.97,3.19.97,1.71,0,3.27-.74,3.27-3.31v-2.95h-.02c-.49,1.81-1.95,2.76-3.46,2.76-1.92,0-3.71-1.59-3.71-4.15s1.78-4.17,3.69-4.17c1.51,0,3,.95,3.49,2.81ZM202.43,63.84c1.81,0,3.49-1.47,3.49-3.96s-1.66-3.98-3.5-3.98-3.49,1.49-3.49,3.98,1.7,3.96,3.5,3.96Z"/>
      <path class="cls-3" d="M214.42,52.37h2.24c2.43,0,4.06,1.25,4.06,3.42s-1.62,3.54-4.08,3.54h-2.01v4.8h-.21v-11.76ZM216.64,59.14c2.35,0,3.87-1.19,3.87-3.34s-1.54-3.23-3.85-3.23h-2.03v6.58h2.01Z"/>
      <path class="cls-3" d="M223.05,55.82h.17l.02,1.82h.02c.4-1.22,1.47-1.89,2.49-1.89.14,0,.36.02.49.03v.19c-.11-.02-.32-.03-.49-.03-1.17,0-2.43.94-2.49,2.57v5.61h-.21v-8.31Z"/>
      <path class="cls-3" d="M226.88,59.98c0-2.65,1.89-4.26,3.87-4.26s3.87,1.62,3.87,4.26-1.9,4.26-3.87,4.26-3.87-1.62-3.87-4.26ZM230.75,64.05c1.87,0,3.66-1.52,3.66-4.07s-1.79-4.07-3.66-4.07-3.66,1.52-3.66,4.07,1.79,4.07,3.66,4.07Z"/>
      <path class="cls-3" d="M237.24,63.37v-7.55h.21v7.55c0,2-.51,3.25-1.32,4.25h-.27c.9-1.01,1.38-2.35,1.38-4.25ZM237.35,52.33c.16,0,.29.13.29.29s-.13.29-.29.29-.29-.13-.29-.29.13-.29.29-.29Z"/>
      <path class="cls-3" d="M240.06,59.98c0-2.65,1.81-4.26,3.74-4.26,1.76,0,3.36,1.36,3.36,4.07,0,.1-.02.21-.02.21h-6.88c0,2.57,1.59,4.06,3.68,4.06,1.08,0,2.19-.36,3.09-1.21v.24c-.9.78-2.03,1.16-3.09,1.16-2.2,0-3.88-1.59-3.88-4.26ZM246.96,59.8c0-2.62-1.51-3.9-3.15-3.9-1.78,0-3.46,1.46-3.54,3.9h6.69Z"/>
      <path class="cls-3" d="M252.99,64.05c.62,0,1.47-.14,2.22-.67v.24c-.74.48-1.59.62-2.22.62-2.09,0-3.92-1.71-3.92-4.26s1.78-4.26,3.88-4.26c.62,0,1.46.13,2.25.59v.22c-.79-.49-1.65-.62-2.25-.62-2,0-3.68,1.66-3.68,4.07s1.71,4.07,3.71,4.07Z"/>
      <path class="cls-3" d="M257.95,55.82h2.54v.19h-2.54v5.75c0,1.71.9,2.27,2.16,2.27.24,0,.43-.02.65-.06v.19c-.13.03-.4.06-.67.06-1.35,0-2.35-.65-2.35-2.43v-5.79h-1.28v-.19h1.28v-1.98h.21v1.98Z"/>
    </g>
    <g>
      <path class="cls-4" d="M79.66,102.99c-1.13-2.08-3.73-2.85-5.81-1.72-1.51.82-2.33,2.42-2.23,4.04-16.91,6.75-36.14,3.74-50.18-7.8.76-1.72.49-3.81-.87-5.28.02.02.05.05.07.07-.02-.02-.04-.05-.07-.07-.11-.12-.2-.22-.28-.3.08.09.18.2.28.3-1.82-1.97-4.9-2.09-6.86-.27-1.97,1.82-2.09,4.9-.27,6.86,1.57,1.7,4.07,2.02,5.99.91,6.07,5.02,13.14,8.59,20.83,10.51,1.41.35,2.84.65,4.28.89,9.65,1.59,19.35.53,28.31-3.08,1.31,1.32,3.38,1.69,5.09.75,2.08-1.13,2.85-3.73,1.72-5.81ZM19.53,98.26c-1.51,1.39-3.86,1.3-5.25-.21.15.16.3.33.37.4-.05-.05-.16-.18-.37-.4-.7-.75-.35-.38,0,0-1.39-1.51-1.3-3.86.21-5.25,1.51-1.39,3.86-1.3,5.25.21,1.39,1.51,1.3,3.86-.21,5.25ZM14.64,98.45s.04.05,0,0h0Z"/>
      <path class="cls-4" d="M20.11,91.73c-.09-.1-.08-.08,0,0h0Z"/>
      <polygon class="cls-4" points="14.27 98.05 14.27 98.05 14.27 98.05 14.27 98.05"/>
      <path class="cls-4" d="M20.92,92.6c.05.06.09.1.13.14-.03-.03-.07-.07-.13-.14Z"/>
      <path class="cls-4" d="M20.64,92.31c.12.13.21.22.28.3-.08-.09-.17-.19-.28-.3Z"/>
      <path class="cls-4" d="M21.04,92.74s.02.03.03.03c0,0-.02-.02-.03-.03Z"/>
      <path class="cls-4" d="M21.09,92.79s0,0,0,0h0Z"/>
      <path class="cls-4" d="M21.07,92.77s.01.01.02.02c0,0,0,0-.02-.02Z"/>
    </g>
    <path class="cls-4" d="M82.97,10.97c-1.91-1.3-4.42-1.05-6.04.45-7.24-3.63-15.24-5.57-23.4-5.63-10.08-.08-19.95,2.72-28.53,8.1-5.19,3.26-9.73,7.32-13.49,12.09-3.63,4.61-6.46,9.77-8.4,15.33-3.41,9.78-3.87,20.41-1.39,30.38-1.49,1.12-2.13,3.12-1.44,4.95.84,2.21,3.32,3.33,5.53,2.48s3.32-3.32,2.48-5.53c-.61-1.61-2.09-2.63-3.7-2.75C-.63,49.99,8.04,28.07,26.59,16.44c14.98-9.39,33.31-10.2,48.88-2.4-.37,1.85.37,3.83,2.03,4.96-.55-.38-1.1-.75,0,0,1.11.75.55.38,0,0,2.21,1.51,5.24.93,6.75-1.28,1.51-2.21.93-5.24-1.28-6.75ZM82.03,11.72c-.1-.07-.17-.12-.19-.13.02.01.08.05.19.13ZM83.3,17.08c-1.15,1.69-3.47,2.13-5.16.98-1.69-1.15-2.13-3.47-.98-5.16,1.15-1.69,3.47-2.13,5.16-.98h0c.32.22.45.31.48.33-.03-.02-.26-.17-.48-.33,1.69,1.15,2.13,3.47.98,5.16Z"/>
    <g>
      <path class="cls-4" d="M40.69,95.39c-1.63-.45-3.3.1-4.36,1.29-12.78-5.65-21.93-17.54-24.16-31.31,1.69-.75,2.88-2.44,2.89-4.41.01-2.68-2.15-4.87-4.83-4.88-2.68-.01-4.87,2.15-4.88,4.83-.01,2.34,1.64,4.3,3.83,4.77,1.12,7.19,4,13.99,8.45,19.88,4.63,6.14,10.67,10.89,17.62,13.93-.01,1.89,1.23,3.63,3.13,4.16,2.28.64,4.64-.7,5.28-2.98.64-2.28-.7-4.64-2.98-5.28ZM6.49,60.96c0,.21,0,.42,0,.5,0-.07,0-.22,0-.5ZM10.19,64.65c-2.05-.01-3.71-1.69-3.7-3.74h0c0-.24,0-.39,0-.48,0,.11,0,.29,0,.48.01-2.05,1.69-3.71,3.74-3.7,2.05.01,3.71,1.69,3.7,3.74-.01,2.05-1.69,3.71-3.74,3.7ZM6.5,60.34s0,.04,0,.07c0-.03,0-.05,0-.07Z"/>
      <path class="cls-4" d="M15.07,60.22c0-.05,0-.05,0,0h0Z"/>
      <path class="cls-4" d="M15.07,60.3c0,.12,0,.32,0,.66,0,.46,0,.67,0,.74,0-.17,0-1.08,0-1.4Z"/>
      <path class="cls-4" d="M15.07,60.3s0-.05,0-.07c0,.02,0,.04,0,.07Z"/>
      <path class="cls-4" d="M15.06,61.7s0,.03,0,0h0Z"/>
    </g>
    <g>
      <path class="cls-4" d="M89.48,47.51s-.03-.11-.05-.2c.02.08.04.14.05.2Z"/>
      <path class="cls-4" d="M89.48,47.51c.04.15.05.19,0,0h0Z"/>
      <path class="cls-4" d="M89.15,46.23s-.01-.05-.02-.07c0,.01,0,.03.02.07Z"/>
      <path class="cls-4" d="M98.73,44.48c-.58-2.27-2.69-3.76-4.94-3.65-2.56-5.84-6.36-11.09-11.15-15.37-6.2-5.53-13.83-9.2-22.07-10.61-18.64-3.19-37.03,5.72-46.16,21.89-1.88-.21-3.74.85-4.46,2.69-.87,2.2.22,4.69,2.42,5.56,2.2.87,4.69-.22,5.56-2.42.62-1.58.24-3.3-.84-4.47,8.54-15,25.64-23.25,42.98-20.29.27.05.53.09.8.14,13.5,2.57,24.65,11.53,30.12,23.94-1.44,1.16-2.15,3.09-1.67,4.99,0,0,0-.02,0-.03,0,.01,0,.02,0,.03h0s0,0,0,0c0,.01,0,.02,0,.03,0,0,0-.02,0-.03.67,2.59,3.32,4.16,5.91,3.5,2.59-.67,4.16-3.32,3.5-5.91ZM94.95,49.28c-1.99.51-4.01-.69-4.52-2.68-.51-1.99.69-4.01,2.68-4.52,1.99-.51,4.01.69,4.52,2.68.51,1.99-.69,4.01-2.68,4.52Z"/>
      <path class="cls-4" d="M89.32,46.86c-.03-.13-.06-.24-.08-.33.03.1.05.21.08.33Z"/>
      <path class="cls-4" d="M89.23,46.53c-.02-.07-.03-.13-.04-.17.01.05.03.11.04.17Z"/>
    </g>
    <g>
      <path class="cls-4" d="M95,67.3c-2.28-.63-4.64.72-5.27,3-.45,1.64.12,3.31,1.31,4.36-4.76,10.92-14.02,19.27-25.37,22.89-1-1.56-2.84-2.48-4.79-2.19.19-.03.39-.06.53-.08-.12.02-.29.04-.53.08-.15.02-.28.04-.38.05.12-.02.25-.04.38-.05-2.65.38-4.49,2.85-4.11,5.5.38,2.65,2.85,4.49,5.5,4.11,2.32-.34,4.02-2.26,4.15-4.51,12.29-3.87,22.32-12.91,27.43-24.74,1.89,0,3.62-1.24,4.15-3.15.63-2.28-.72-4.64-3-5.27ZM62.11,103.83c-2.03.29-3.92-1.12-4.21-3.15-.29-2.03,1.12-3.92,3.15-4.21,2.03-.29,3.92,1.12,4.21,3.15.29,2.03-1.12,3.92-3.15,4.21Z"/>
      <path class="cls-4" d="M60.5,95.4c-.11.02-.19.03-.25.04.07,0,.15-.02.25-.04Z"/>
      <path class="cls-4" d="M61.44,95.27c.31-.04.23-.03,0,0h0Z"/>
      <path class="cls-4" d="M60.14,95.45s.04,0,.08-.01c-.03,0-.06,0-.08.01Z"/>
    </g>
    <g>
      <path class="cls-1" d="M42.29,44.27c1.79,0,3.31-1.13,3.9-2.71h12.32l20.46,13.52c.24.16.52.24.8.24h54.14c.81,0,1.46-.65,1.46-1.46s-.65-1.46-1.46-1.46h-53.7l-20.46-13.52c-.24-.16-.52-.24-.8-.24h-12.76c-.59-1.58-2.11-2.71-3.9-2.71-2.3,0-4.17,1.87-4.17,4.17s1.87,4.17,4.17,4.17Z"/>
      <path class="cls-2" d="M133.92,60.86h-54.14c-.29,0-.57.08-.8.24l-20.46,13.52h-12.32c-.59-1.58-2.11-2.71-3.9-2.71-2.3,0-4.17,1.87-4.17,4.17s1.87,4.17,4.17,4.17c1.79,0,3.31-1.13,3.9-2.71h12.76c.29,0,.57-.08.8-.24l20.46-13.52h53.7c.81,0,1.46-.65,1.46-1.46s-.65-1.46-1.46-1.46Z"/>
    </g>
    <g>
      <path class="cls-3" d="M119.16,1.58c-1.52.26-2.71.57-3.57.9-.86.34-1.48.76-1.88,1.27-.4.51-.64,1.15-.74,1.92-.09.77-.14,1.72-.14,2.85v27.13c.86.19,1.69.36,2.5.51s1.63.23,2.45.23c1.87,0,3.51-.23,4.9-.68s2.65-1.13,3.76-2.04c1.11-.9,2.13-2.04,3.07-3.42.94-1.38,1.88-2.99,2.83-4.83h.71l-3.67,12.66c-1.14-.08-2.29-.13-3.45-.17-1.16-.04-2.31-.06-3.45-.06h-14c-.79,0-1.59.02-2.38.06-.79.04-1.59.09-2.38.17v-.68c1.05-.11,1.88-.3,2.5-.57.62-.26,1.1-.59,1.45-.99.35-.4.58-.88.69-1.44.11-.56.17-1.22.17-1.98V10.06c0-1.58-.04-2.89-.12-3.93-.08-1.04-.28-1.87-.59-2.52-.32-.64-.79-1.11-1.43-1.41-.63-.3-1.52-.51-2.67-.62v-.68c1.24.08,2.47.13,3.69.17,1.22.04,2.45.06,3.69.06,1.33,0,2.67-.02,4.02-.06,1.35-.04,2.69-.09,4.02-.17v.68Z"/>
      <path class="cls-3" d="M135.06,19.5c0-3.05.47-5.78,1.4-8.2.94-2.41,2.2-4.46,3.78-6.13s3.45-2.96,5.59-3.84c2.14-.88,4.42-1.33,6.83-1.33s4.69.44,6.83,1.33c2.14.89,4.01,2.17,5.59,3.84,1.59,1.68,2.85,3.72,3.78,6.13.94,2.41,1.4,5.14,1.4,8.2s-.47,5.79-1.4,8.2c-.94,2.41-2.2,4.46-3.78,6.13-1.59,1.68-3.45,2.96-5.59,3.84-2.14.88-4.42,1.33-6.83,1.33s-4.69-.44-6.83-1.33c-2.14-.89-4.01-2.17-5.59-3.84s-2.85-3.72-3.78-6.13c-.94-2.41-1.4-5.14-1.4-8.2ZM140.11,19.5c0,2.3.29,4.5.86,6.61.57,2.11,1.4,3.97,2.48,5.57,1.08,1.6,2.4,2.88,3.95,3.84s3.32,1.44,5.28,1.44,3.73-.48,5.28-1.44c1.55-.96,2.87-2.24,3.95-3.84,1.08-1.6,1.9-3.46,2.47-5.57s.86-4.31.86-6.61-.29-4.5-.86-6.61-1.4-3.97-2.47-5.57c-1.08-1.6-2.4-2.88-3.95-3.84-1.56-.96-3.32-1.44-5.28-1.44s-3.73.48-5.28,1.44-2.87,2.24-3.95,3.84c-1.08,1.6-1.9,3.46-2.48,5.57-.57,2.11-.86,4.32-.86,6.61Z"/>
      <path class="cls-3" d="M182.86,21.54l-3.14,10.23c-.09.3-.18.57-.26.79-.08.23-.12.47-.12.74,0,.68.17,1.26.5,1.75.33.49.74.9,1.21,1.22.48.32.97.57,1.48.76.51.19.94.32,1.29.4v.68c-.95-.08-1.9-.13-2.86-.17-.95-.04-1.92-.06-2.9-.06s-1.88.02-2.78.06c-.91.04-1.87.09-2.88.17v-.68c.98-.26,1.8-.67,2.45-1.21.65-.55,1.2-1.2,1.64-1.95.44-.75.83-1.58,1.17-2.49s.66-1.85.98-2.83l8.24-24.02c.1-.26.18-.51.26-.73.08-.23.12-.43.12-.62s-.06-.47-.17-.85c-.11-.38-.25-.72-.41-1.02.83-.19,1.54-.43,2.14-.73.6-.3,1.27-.62,2-.96l9.9,32.33c.44,1.47,1.06,2.63,1.86,3.48.79.85,1.97,1.38,3.52,1.61v.68c-1.27-.08-2.52-.13-3.74-.17-1.22-.04-2.5-.06-3.83-.06h-2.24c-.64,0-1.21,0-1.71.03-.51.02-.99.05-1.45.08-.46.04-.96.08-1.5.11v-.68c1.33-.19,2.45-.59,3.36-1.21.9-.62,1.36-1.46,1.36-2.52,0-.3-.06-.6-.17-.9-.11-.3-.2-.58-.26-.85l-3.09-10.4h-9.95ZM188,5.48l-4.67,14.36h8.95l-4.28-14.36Z"/>
      <path class="cls-3" d="M206.75.9c1.11.08,2.17.13,3.17.17,1,.04,2.17.06,3.5.06.7,0,1.38-.02,2.05-.06.67-.04,1.35-.09,2.05-.17.41.68,1.1,1.71,2.05,3.08.95,1.38,2.04,2.95,3.26,4.72,1.22,1.77,2.53,3.66,3.93,5.65s2.75,3.95,4.05,5.85c1.3,1.9,2.5,3.67,3.59,5.31,1.09,1.64,1.96,2.99,2.59,4.04h.1c0-1.13,0-2.25.02-3.36.02-1.11.02-2.23.02-3.36v-6.56c0-2.41-.07-4.51-.21-6.3-.14-1.79-.43-3.29-.86-4.49-.43-1.21-1.03-2.13-1.81-2.77-.78-.64-1.8-1.02-3.07-1.13v-.68c1.11.08,2.23.13,3.36.17,1.13.04,2.25.06,3.36.06,1.01,0,2.05-.02,3.09-.06,1.05-.04,2.08-.09,3.09-.17v.68c-2,.3-3.37.99-4.12,2.06-.75,1.07-1.12,2.72-1.12,4.95v29.96h-1.76c-1.75-3.24-3.59-6.39-5.55-9.44-1.95-3.05-3.89-5.95-5.81-8.71-1.92-2.75-3.78-5.3-5.57-7.66-1.79-2.35-3.4-4.46-4.83-6.3-.03.98-.06,1.94-.07,2.88-.02.94-.02,1.9-.02,2.88v9.89c0,3.35.05,6,.17,7.94.11,1.94.38,3.43.81,4.46.43,1.04,1.06,1.73,1.9,2.09.84.36,2.01.63,3.5.82v.68c-1.62-.08-3.19-.13-4.71-.17-1.52-.04-3.09-.06-4.71-.06-.92,0-1.83.02-2.71.06-.89.04-1.79.09-2.71.17v-.68c1.08-.19,2.02-.37,2.83-.54.81-.17,1.48-.45,2-.85.52-.4.92-.96,1.19-1.7.27-.74.42-1.76.45-3.08l.57-25.94c-1.02-.98-2.13-1.75-3.33-2.32-1.21-.56-2.44-1.04-3.71-1.41v-.68Z"/>
    </g>
    <g>
      <path class="cls-3" d="M119.26,87.38c-.34-1-.78-1.99-1.32-2.97-.54-.98-1.16-1.85-1.87-2.62-.71-.76-1.5-1.38-2.36-1.85s-1.81-.7-2.84-.7c-1.5,0-2.73.33-3.68.98-.96.66-1.44,1.82-1.44,3.51,0,1,.22,1.86.65,2.6.43.73,1.01,1.38,1.73,1.94.72.56,1.54,1.08,2.46,1.54.92.47,1.86.94,2.82,1.43s1.9,1.01,2.82,1.57c.92.56,1.74,1.23,2.46,2.01.72.78,1.3,1.68,1.73,2.71.43,1.03.65,2.26.65,3.7,0,1.53-.24,2.85-.71,3.95-.47,1.11-1.11,2.02-1.91,2.74-.8.72-1.73,1.25-2.8,1.59-1.06.34-2.2.51-3.41.51-.66,0-1.34-.07-2.05-.22-.71-.15-1.39-.31-2.05-.48-.66-.18-1.25-.34-1.79-.48-.54-.14-.97-.22-1.28-.22-.29,0-.57.05-.83.16-.26.11-.54.23-.83.35-.24-1.77-.51-3.5-.83-5.2-.32-1.69-.64-3.42-.98-5.19l.51-.33c.47,1.09,1.04,2.22,1.71,3.4s1.42,2.26,2.26,3.24c.84.98,1.77,1.79,2.78,2.44,1.01.65,2.11.98,3.29.98.76,0,1.5-.1,2.21-.3.71-.2,1.33-.52,1.87-.96.54-.44.96-1,1.28-1.71.32-.7.47-1.56.47-2.59,0-1.46-.38-2.69-1.14-3.67s-1.71-1.84-2.84-2.57c-1.13-.73-2.36-1.41-3.68-2.03-1.33-.62-2.55-1.32-3.68-2.1-1.13-.78-2.08-1.7-2.84-2.76-.76-1.06-1.14-2.4-1.14-4.02,0-1.21.2-2.32.59-3.32.39-1,.93-1.84,1.6-2.54.67-.7,1.44-1.24,2.32-1.61.88-.37,1.82-.56,2.82-.56s1.84.08,2.62.23c.77.16,1.53.33,2.26.51.76.19,1.51.37,2.25.54.73.17,1.52.26,2.36.26,0,1.4.02,2.77.06,4.09.04,1.33.12,2.66.26,4h-.55Z"/>
      <path class="cls-3" d="M146.99,86.07c0-1.31-.03-2.39-.1-3.25-.07-.86-.24-1.55-.51-2.08-.28-.53-.69-.92-1.24-1.17-.55-.25-1.3-.42-2.25-.51v-.56c1.1.06,2.17.11,3.21.14,1.04.03,2.11.05,3.21.05.87,0,1.73-.01,2.6-.05.87-.03,1.72-.08,2.56-.14v.56c-.92.09-1.64.26-2.17.51-.53.25-.92.64-1.18,1.17s-.43,1.22-.49,2.08-.1,1.94-.1,3.25v15.62c0,1.31.03,2.39.1,3.25s.24,1.55.51,2.08c.28.53.69.92,1.24,1.17s1.31.42,2.29.51v.56c-1-.06-2-.11-2.99-.14-1-.03-2-.05-2.99-.05s-1.93.01-2.88.05c-.95.03-1.89.08-2.84.14v-.56c.95-.09,1.68-.26,2.21-.51s.93-.64,1.2-1.17c.28-.53.45-1.22.51-2.08.07-.86.1-1.94.1-3.25v-8.42h-14.62v8.42c0,1.31.03,2.39.1,3.25s.24,1.55.51,2.08c.28.53.69.92,1.24,1.17.55.25,1.31.42,2.28.51v.56c-1-.06-2-.11-2.99-.14-1-.03-2-.05-2.99-.05s-1.93.01-2.88.05c-.95.03-1.89.08-2.84.14v-.56c.95-.09,1.68-.26,2.21-.51s.93-.64,1.2-1.17c.28-.53.45-1.22.51-2.08s.1-1.94.1-3.25v-15.62c0-1.31-.03-2.39-.1-3.25s-.24-1.55-.51-2.08c-.28-.53-.69-.92-1.24-1.17s-1.3-.42-2.25-.51v-.56c1.1.06,2.17.11,3.21.14s2.11.05,3.21.05c.87,0,1.73-.01,2.6-.05.87-.03,1.72-.08,2.56-.14v.56c-.92.09-1.64.26-2.17.51-.53.25-.92.64-1.18,1.17-.26.53-.43,1.22-.49,2.08s-.1,1.94-.1,3.25v5.71h14.62v-5.71Z"/>
      <path class="cls-3" d="M164.68,95.57l-2.6,8.47c-.08.25-.15.47-.22.65-.07.19-.1.39-.1.61,0,.56.14,1.04.41,1.45.28.41.61.74,1,1.01.39.26.8.48,1.22.63.42.16.77.27,1.06.33v.56c-.79-.06-1.58-.11-2.36-.14-.79-.03-1.59-.05-2.4-.05s-1.56.01-2.3.05c-.75.03-1.54.08-2.38.14v-.56c.81-.22,1.49-.55,2.03-1.01.54-.45.99-.99,1.36-1.61.37-.62.69-1.31.96-2.06.28-.75.54-1.53.81-2.34l6.82-19.88c.08-.22.15-.42.22-.61.06-.19.1-.36.1-.51s-.05-.39-.14-.7-.2-.59-.33-.84c.68-.16,1.27-.36,1.77-.61s1.05-.51,1.65-.8l8.19,26.76c.37,1.22.88,2.17,1.54,2.88.66.7,1.63,1.15,2.92,1.33v.56c-1.05-.06-2.08-.11-3.09-.14-1.01-.03-2.07-.05-3.17-.05h-1.85c-.53,0-1,0-1.42.02-.42.01-.82.04-1.2.07-.38.03-.79.06-1.24.09v-.56c1.1-.16,2.03-.49,2.78-1.01.75-.51,1.12-1.21,1.12-2.08,0-.25-.05-.5-.14-.75s-.16-.48-.22-.7l-2.56-8.61h-8.23ZM168.93,82.28l-3.86,11.88h7.41l-3.54-11.88Z"/>
      <path class="cls-3" d="M212.9,109.08h-7.09c-1.66-2.15-3.19-4.36-4.59-6.62-1.41-2.26-2.66-4.65-3.76-7.18-.26,0-.6-.03-1-.09-.41-.06-.83-.13-1.26-.21s-.85-.17-1.26-.28c-.41-.11-.74-.21-1-.3v7.3c0,1.31.03,2.39.1,3.25s.24,1.55.51,2.08c.28.53.69.92,1.24,1.17.55.25,1.31.42,2.28.51v.56c-1-.06-2-.11-2.99-.14-1-.03-2-.05-2.99-.05s-1.93.01-2.88.05c-.95.03-1.89.08-2.84.14v-.56c.95-.09,1.68-.26,2.21-.51s.93-.64,1.2-1.17c.28-.53.45-1.22.51-2.08s.1-1.94.1-3.25v-15.62c0-1.31-.03-2.39-.1-3.25s-.24-1.55-.51-2.08c-.28-.53-.68-.92-1.2-1.17s-1.26-.42-2.21-.51v-.56c.84.06,1.68.11,2.52.14.84.03,1.68.05,2.52.05.37,0,.83-.02,1.38-.07.55-.05,1.14-.1,1.75-.16.62-.06,1.24-.12,1.87-.16s1.19-.07,1.69-.07c1.13,0,2.28.17,3.47.51,1.18.34,2.25.89,3.19,1.64.95.75,1.72,1.7,2.32,2.85.6,1.15.91,2.53.91,4.12,0,1.09-.16,2.06-.49,2.9-.33.84-.77,1.58-1.32,2.2-.55.62-1.2,1.14-1.95,1.54-.75.41-1.53.7-2.34.89.37.75.8,1.59,1.3,2.53s1.06,1.89,1.67,2.85c.62.97,1.27,1.93,1.97,2.88.7.95,1.43,1.81,2.21,2.57.77.76,1.57,1.4,2.38,1.92.81.51,1.64.82,2.48.91v.56ZM192.92,92.81c1.18.53,2.4.8,3.66.8,2.05,0,3.64-.56,4.77-1.68,1.13-1.12,1.69-2.95,1.69-5.47,0-1.03-.16-1.96-.49-2.78-.33-.83-.78-1.54-1.36-2.15-.58-.61-1.24-1.08-1.99-1.4-.75-.33-1.53-.49-2.34-.49-.66,0-1.3.03-1.93.09-.63.06-1.25.2-1.85.42-.05,1.5-.09,3.01-.12,4.54-.03,1.53-.04,3.18-.04,4.96v3.18Z"/>
      <path class="cls-3" d="M221.25,101.69c0,1.31.03,2.39.1,3.25s.24,1.55.51,2.08c.28.53.69.92,1.24,1.17.55.25,1.31.42,2.29.51v.56c-1-.06-2-.11-2.99-.14-1-.03-2-.05-2.99-.05s-1.93.01-2.88.05c-.95.03-1.89.08-2.84.14v-.56c.95-.09,1.68-.26,2.21-.51s.93-.64,1.2-1.17c.28-.53.45-1.22.51-2.08s.1-1.94.1-3.25v-15.62c0-1.31-.03-2.39-.1-3.25s-.24-1.55-.51-2.08c-.28-.53-.69-.92-1.24-1.17s-1.3-.42-2.25-.51v-.56c1.1.06,2.17.11,3.21.14s2.11.05,3.21.05c.87,0,1.73-.01,2.6-.05.87-.03,1.72-.08,2.56-.14v.56c-.92.09-1.64.26-2.17.51-.53.25-.92.64-1.18,1.17-.26.53-.43,1.22-.49,2.08s-.1,1.94-.1,3.25v7.91l5.99-5.8c.55-.53,1.08-1.08,1.58-1.66.5-.58.94-1.16,1.32-1.75s.68-1.15.91-1.68c.22-.53.33-1.01.33-1.45,0-.47-.09-.87-.26-1.19-.17-.33-.39-.59-.67-.8-.28-.2-.58-.35-.93-.44-.34-.09-.68-.14-1.02-.14v-.56c1,.06,1.98.11,2.93.14s1.94.05,2.94.05c1.05,0,2.09-.01,3.13-.05,1.04-.03,2.08-.08,3.13-.14v.56c-.68.09-1.32.25-1.91.47s-1.2.54-1.81.96c-.62.42-1.27.95-1.97,1.59-.7.64-1.5,1.43-2.42,2.36l-4.88,4.96,7.96,13.89c.81,1.37,1.74,2.59,2.78,3.65,1.04,1.06,2.25,1.65,3.64,1.78v.56c-1.13-.06-2.26-.11-3.39-.14-1.13-.03-2.26-.05-3.39-.05-1.02,0-2.04.01-3.05.05-1.01.03-2.03.08-3.05.14v-.56c.95-.06,1.77-.3,2.46-.7.7-.41,1.04-1.12,1.04-2.15,0-.44-.14-.9-.43-1.4s-.7-1.2-1.22-2.11l-5.95-10.38-3.78,3.51v6.22Z"/>
    </g>
  </g>
</svg>