<?xml version="1.0" encoding="UTF-8"?>
<svg id="Layer_2" data-name="Layer 2" xmlns="http://www.w3.org/2000/svg" viewBox="0 0 198.72 135.22">
  <defs>
    <style>
      .cls-1 {
        fill: #263d88;
      }
    </style>
  </defs>
  <g id="Layer_1-2" data-name="Layer 1">
    <g>
      <path class="cls-1" d="M25.88,106.52v28.22h-5.36l-14.07-17.13v17.13H0v-28.22h5.4l14.03,17.13v-17.13h6.45Z"/>
      <path class="cls-1" d="M30.52,123.9c0-6.53,5.04-11.17,11.93-11.17s11.89,4.64,11.89,11.17-5,11.17-11.89,11.17-11.93-4.64-11.93-11.17ZM47.98,123.9c0-3.75-2.38-6.01-5.52-6.01s-5.56,2.26-5.56,6.01,2.42,6.01,5.56,6.01,5.52-2.26,5.52-6.01Z"/>
      <path class="cls-1" d="M79.46,113.05l-9.15,21.69h-6.49l-9.11-21.69h6.49l6.01,14.75,6.21-14.75h6.05Z"/>
      <path class="cls-1" d="M100.51,122.36v12.38h-5.89v-2.7c-1.17,1.98-3.43,3.02-6.61,3.02-5.08,0-8.1-2.82-8.1-6.57s2.7-6.49,9.31-6.49h5c0-2.7-1.61-4.27-5-4.27-2.3,0-4.68.77-6.25,2.02l-2.26-4.39c2.38-1.69,5.89-2.62,9.35-2.62,6.61,0,10.44,3.06,10.44,9.63ZM94.22,127.89v-2.22h-4.31c-2.94,0-3.87,1.09-3.87,2.54,0,1.57,1.33,2.62,3.55,2.62,2.1,0,3.91-.97,4.64-2.94Z"/>
      <path class="cls-1" d="M104.87,120.63c0-8.51,6.53-14.59,15.32-14.59,4.88,0,8.95,1.77,11.61,5l-4.19,3.87c-1.89-2.18-4.27-3.31-7.1-3.31-5.28,0-9.03,3.71-9.03,9.03s3.75,9.03,9.03,9.03c2.82,0,5.2-1.13,7.1-3.35l4.19,3.87c-2.66,3.27-6.73,5.04-11.65,5.04-8.75,0-15.28-6.09-15.28-14.59Z"/>
      <path class="cls-1" d="M154.78,122.36v12.38h-5.89v-2.7c-1.17,1.98-3.43,3.02-6.61,3.02-5.08,0-8.1-2.82-8.1-6.57s2.7-6.49,9.31-6.49h5c0-2.7-1.61-4.27-5-4.27-2.3,0-4.68.77-6.25,2.02l-2.26-4.39c2.38-1.69,5.89-2.62,9.35-2.62,6.61,0,10.44,3.06,10.44,9.63ZM148.49,127.89v-2.22h-4.31c-2.94,0-3.87,1.09-3.87,2.54,0,1.57,1.33,2.62,3.55,2.62,2.1,0,3.91-.97,4.64-2.94Z"/>
      <path class="cls-1" d="M173.93,112.73v5.81c-.52-.04-.93-.08-1.41-.08-3.47,0-5.77,1.89-5.77,6.05v10.24h-6.29v-21.69h6.01v2.86c1.53-2.1,4.11-3.18,7.46-3.18Z"/>
      <path class="cls-1" d="M198.6,125.67h-16.41c.6,2.7,2.9,4.35,6.21,4.35,2.3,0,3.95-.69,5.44-2.1l3.35,3.63c-2.02,2.3-5.04,3.51-8.95,3.51-7.5,0-12.38-4.72-12.38-11.17s4.96-11.17,11.57-11.17,11.29,4.27,11.29,11.25c0,.48-.08,1.17-.12,1.69ZM182.12,122h10.68c-.44-2.74-2.5-4.52-5.32-4.52s-4.92,1.73-5.36,4.52Z"/>
    </g>
    <g>
      <path class="cls-1" d="M87.14,36.13v-13.46c0-3.68,2.98-6.65,6.65-6.65h9.08c.2,0,.4.01.59.03V2.96l-5.13-2.96-41.03,23.69v12.44h29.84Z"/>
      <path class="cls-1" d="M109.58,36.16h13.44c3.68,0,6.65,2.98,6.65,6.65v9.08c0,.18-.01.36-.03.54h9.72v-28.75l-29.79-17.2v29.67Z"/>
      <path class="cls-1" d="M123.18,58.55c-.05,0-.1,0-.15,0h-13.49v13.49c0,3.68-2.98,6.65-6.65,6.65h-9.08c-.19,0-.38-.01-.56-.03v13.15l5.1,2.95,41.03-23.69v-12.53h-16.2Z"/>
      <path class="cls-1" d="M87.13,58.55h-13.47c-3.68,0-6.65-2.98-6.65-6.65v-9.08c0-.19.01-.38.03-.57h-9.72v28.83l29.82,17.22v-29.73Z"/>
    </g>
  </g>
</svg>