<?xml version="1.0" encoding="UTF-8"?>
<svg id="Layer_2" data-name="Layer 2" xmlns="http://www.w3.org/2000/svg" viewBox="0 0 161.52 373.31">
  <defs>
    <style>
      .cls-1 {
        fill: #f49e1e;
      }

      .cls-2 {
        fill: #fff;
      }
    </style>
  </defs>
  <g id="Layer_1-2" data-name="Layer 1">
    <g>
      <path class="cls-2" d="M51.53,119.87c.29-16.69,12.6-30.32,28.52-32.87l2.89-20.06c-31.35-.65-40.21,18.61-42.47,31.66C28.52,167.42,0,372.64,0,372.64l38.77.67,32.05-222.28c-11.6-5.56-19.53-17.47-19.29-31.17Z"/>
      <path class="cls-1" d="M57.85,0l-2.6,18.02,17.98.22,1.4-5.91,28.75.5-10.7,74.16c15.53,3.34,27.04,17.27,26.75,33.75-.33,18.73-15.78,33.65-34.51,33.31-.64-.01-1.26-.08-1.89-.13l-12.35,85.59c57.85,1.79,59.2-20.21,61.93-38.2C138.08,165.14,161.52,1.83,161.52,1.83L57.85,0Z"/>
    </g>
  </g>
</svg>