<?xml version="1.0" encoding="UTF-8"?>
<svg id="Layer_2" data-name="Layer 2" xmlns="http://www.w3.org/2000/svg" viewBox="0 0 158.58 24.62">
  <defs>
    <style>
      .cls-1 {
        fill: #fff;
      }

      .cls-2 {
        fill: #faa31a;
      }
    </style>
  </defs>
  <g id="Layer_1-2" data-name="Layer 1">
    <g>
      <path class="cls-1" d="M18.94,8.5c0,5.15-3.73,8.26-9.88,8.26H2.56v7.64H0V.21h9.05c6.15,0,9.88,3.11,9.88,8.29ZM16.38,8.5c0-3.87-2.56-6.08-7.4-6.08H2.56v12.09h6.43c4.84,0,7.4-2.21,7.4-6.01Z"/>
      <path class="cls-1" d="M45.03.21v24.19h-2.52v-11.16h-15.14v11.16h-2.56V.21h2.56v10.78h15.14V.21h2.52Z"/>
      <path class="cls-2" d="M71.59,9.76v14.64h-3.05v-3.68c-1.44,2.43-4.22,3.91-8.13,3.91-5.34,0-8.62-2.78-8.62-6.87,0-3.64,2.34-6.69,9.12-6.69h7.5v-1.44c0-4.04-2.29-6.24-6.69-6.24-3.05,0-5.93,1.08-7.86,2.78l-1.44-2.38c2.38-2.02,5.88-3.19,9.61-3.19,6.11,0,9.57,3.05,9.57,9.16ZM68.4,17.3v-3.86h-7.41c-4.58,0-6.06,1.8-6.06,4.22,0,2.74,2.2,4.45,5.97,4.45s6.24-1.71,7.5-4.81Z"/>
      <path class="cls-1" d="M105.33.21v24.19h-2.45V5.05l-9.5,16.28h-1.21l-9.5-16.17v19.25h-2.45V.21h2.11l10.51,17.93L103.22.21h2.11Z"/>
      <path class="cls-1" d="M111.41,12.3c0-7.05,5.39-12.3,12.72-12.3s12.68,5.22,12.68,12.3-5.43,12.3-12.68,12.3-12.72-5.25-12.72-12.3ZM134.25,12.3c0-5.77-4.32-10.02-10.13-10.02s-10.19,4.25-10.19,10.02,4.35,10.02,10.19,10.02,10.13-4.25,10.13-10.02Z"/>
      <path class="cls-1" d="M140.58,21.46l1-1.97c1.73,1.69,4.8,2.94,7.98,2.94,4.53,0,6.5-1.9,6.5-4.29,0-6.63-14.89-2.56-14.89-11.51,0-3.56,2.76-6.63,8.92-6.63,2.73,0,5.56.79,7.5,2.14l-.86,2.04c-2.07-1.35-4.49-2-6.63-2-4.42,0-6.39,1.97-6.39,4.39,0,6.63,14.89,2.63,14.89,11.44,0,3.56-2.83,6.6-9.02,6.6-3.63,0-7.19-1.28-8.98-3.14Z"/>
    </g>
  </g>
</svg>