<?xml version="1.0" encoding="UTF-8"?>
<svg id="Layer_2" data-name="Layer 2" xmlns="http://www.w3.org/2000/svg" viewBox="0 0 159.55 163.73">
  <defs>
    <style>
      .cls-1 {
        fill: #f49e1e;
      }

      .cls-2 {
        fill: #f8fbfd;
      }
    </style>
  </defs>
  <g id="Layer_1-2" data-name="Layer 1">
    <g>
      <path class="cls-2" d="M20.61,52.47c0-7.32,5.29-13.4,12.26-14.63l1.12-8.82c-12.91-.99-17.75,9.29-17.75,9.29L0,163.73h16.94l12.36-97.74c-5.13-2.35-8.7-7.51-8.7-13.52Z"/>
      <path class="cls-1" d="M22.43,0l-1,7.92,7.89-.04.57-2.6h12.61s-4.12,32.61-4.12,32.61c6.84,1.34,11.99,7.36,11.99,14.59,0,8.22-6.66,14.88-14.88,14.88-.28,0-.55-.03-.83-.04l-4.75,37.63c25.38.34,26.87-17.23,26.87-17.23C59.67,71.93,67.91,0,67.91,0H22.43Z"/>
    </g>
    <g>
      <path class="cls-2" d="M77.2,89.51c0,2.01-.66,3.54-1.97,4.61-1.31,1.07-3.18,1.6-5.61,1.6h-2v7.19h-3.14v-19.21h5.53c2.4,0,4.2.49,5.39,1.47,1.2.98,1.79,2.43,1.79,4.34ZM67.62,93.08h1.67c1.61,0,2.79-.28,3.55-.84.75-.56,1.13-1.44,1.13-2.63,0-1.1-.34-1.93-1.01-2.47-.67-.54-1.73-.82-3.15-.82h-2.18v6.75Z"/>
      <path class="cls-2" d="M96.18,102.91h-3.15v-8.66h-8.86v8.66h-3.14v-19.21h3.14v7.86h8.86v-7.86h3.15v19.21Z"/>
      <path class="cls-2" d="M101.24,102.91v-19.21h3.14v19.21h-3.14Z"/>
      <path class="cls-2" d="M109.45,102.91v-19.21h3.14v16.52h8.13v2.69h-11.27Z"/>
      <path class="cls-2" d="M124.03,102.91v-19.21h3.14v16.52h8.13v2.69h-11.27Z"/>
      <path class="cls-2" d="M138.62,102.91v-19.21h3.14v19.21h-3.14Z"/>
      <path class="cls-2" d="M159.55,89.51c0,2.01-.66,3.54-1.97,4.61-1.31,1.07-3.18,1.6-5.61,1.6h-2v7.19h-3.14v-19.21h5.53c2.4,0,4.2.49,5.39,1.47,1.2.98,1.79,2.43,1.79,4.34ZM149.97,93.08h1.67c1.61,0,2.79-.28,3.55-.84.75-.56,1.13-1.44,1.13-2.63,0-1.1-.34-1.93-1.01-2.47-.67-.54-1.73-.82-3.15-.82h-2.18v6.75Z"/>
    </g>
    <g>
      <path class="cls-1" d="M58.92,127.39l-.74-2.41h-.13c-.84,1.05-1.68,1.77-2.52,2.15s-1.93.57-3.26.57c-1.7,0-3.03-.46-3.99-1.38s-1.43-2.22-1.43-3.9c0-1.79.66-3.13,1.99-4.04s3.35-1.4,6.06-1.49l2.99-.09v-.92c0-1.11-.26-1.93-.78-2.48s-1.32-.82-2.4-.82c-.89,0-1.74.13-2.55.39s-1.6.57-2.35.92l-1.19-2.63c.94-.49,1.97-.86,3.09-1.12s2.17-.38,3.16-.38c2.2,0,3.87.48,4.99,1.44s1.68,2.47,1.68,4.53v11.67h-2.63ZM53.44,124.88c1.34,0,2.41-.37,3.22-1.12s1.21-1.79,1.21-3.14v-1.5l-2.22.09c-1.73.06-2.99.35-3.78.87s-1.18,1.31-1.18,2.37c0,.77.23,1.37.69,1.79s1.15.63,2.07.63Z"/>
      <path class="cls-2" d="M72.78,127.43l-5.13-14.76h-.1c.14,2.19.21,4.25.21,6.17v8.6h-2.62v-17.67h4.07l4.91,14.06h.07l5.05-14.06h4.09v17.67h-2.78v-8.74c0-.88.02-2.02.07-3.43.04-1.41.08-2.26.11-2.56h-.1l-5.31,14.74h-2.55Z"/>
      <path class="cls-2" d="M103.68,118.56c0,2.88-.72,5.11-2.16,6.71-1.44,1.6-3.48,2.39-6.11,2.39s-4.72-.79-6.15-2.38-2.15-3.83-2.15-6.75.72-5.16,2.16-6.72c1.44-1.56,3.49-2.35,6.16-2.35s4.66.79,6.09,2.38,2.15,3.82,2.15,6.71ZM90.19,118.56c0,2.18.44,3.83,1.32,4.95.88,1.12,2.18,1.69,3.91,1.69s3.01-.56,3.89-1.67c.87-1.11,1.31-2.77,1.31-4.97s-.43-3.81-1.3-4.93c-.87-1.12-2.16-1.68-3.87-1.68s-3.04.56-3.92,1.68c-.88,1.12-1.32,2.76-1.32,4.93Z"/>
      <path class="cls-2" d="M117.67,122.63c0,1.57-.57,2.8-1.71,3.7-1.14.89-2.7,1.34-4.7,1.34s-3.63-.31-4.91-.93v-2.73c.81.38,1.66.68,2.57.89.91.22,1.75.33,2.53.33,1.14,0,1.99-.22,2.53-.65.54-.44.82-1.02.82-1.75,0-.66-.25-1.22-.75-1.68-.5-.46-1.53-1-3.09-1.63-1.61-.65-2.75-1.4-3.41-2.24-.66-.84-.99-1.85-.99-3.02,0-1.47.52-2.64,1.57-3.48,1.05-.85,2.45-1.27,4.22-1.27s3.38.37,5.05,1.11l-.92,2.36c-1.57-.66-2.97-.99-4.21-.99-.94,0-1.64.2-2.13.61-.48.41-.73.94-.73,1.61,0,.46.1.85.29,1.18s.51.63.96.92,1.24.67,2.39,1.15c1.3.54,2.25,1.04,2.85,1.51.6.47,1.05,1,1.33,1.58.28.59.42,1.28.42,2.08Z"/>
    </g>
  </g>
</svg>