<?xml version="1.0" encoding="UTF-8"?>
<svg id="Layer_2" data-name="Layer 2" xmlns="http://www.w3.org/2000/svg" viewBox="0 0 254.01 83.67">
  <defs>
    <style>
      .cls-1 {
        fill: #231f20;
      }
    </style>
  </defs>
  <g id="Layer_1-2" data-name="Layer 1">
    <g>
      <g>
        <path class="cls-1" d="M36.79,81.29c.25-2.5.44-5.37.57-8.61.13-3.24.19-6.09.19-8.54,1,.02,1.85.02,2.53.02.73,0,1.44-.01,2.14-.04.7-.03,1.44-.04,2.22-.04.97,0,1.84.05,2.61.16.77.11,1.45.36,2.04.75s1.04.87,1.33,1.43c.29.56.43,1.21.43,1.96,0,.47-.05.92-.16,1.34-.11.42-.27.82-.48,1.19-.21.37-.47.7-.76.98-.29.28-.58.5-.87.67-.29.16-.62.3-.99.42-.37.12-.86.26-1.48.43l.85,1.66c.28.53.8,1.47,1.57,2.84l1.27,2.22c.07.12.27.5.6,1.14-1.02-.02-1.7-.03-2.03-.03-.4,0-1.11,0-2.13.03l-1.39-3.34c-.24-.51-.53-1.11-.88-1.81l-1.52-3.05c-.15-.28-.36-.71-.63-1.28.56.1,1.07.15,1.53.15.72,0,1.38-.12,1.97-.35s1.05-.6,1.37-1.09c.32-.49.48-1.02.48-1.6,0-.35-.07-.68-.21-.98-.14-.3-.37-.56-.7-.77-.33-.21-.72-.34-1.17-.4s-.9-.09-1.36-.09c-.25,0-.59,0-1.03.01-.44,0-.97.01-1.61.01l-.22,5.16-.24,9.42-1.95-.03c-.31,0-.94,0-1.9.03Z"/>
        <path class="cls-1" d="M64.23,78.44c-.11.49-.26,1.38-.47,2.66-.9.19-1.67.32-2.29.39-.62.07-1.24.1-1.87.1-1.1,0-2.08-.11-2.95-.33-.87-.22-1.63-.62-2.28-1.2-.65-.58-1.14-1.29-1.45-2.14s-.46-1.73-.46-2.66c0-1.03.18-2.03.54-2.99.36-.97.86-1.76,1.51-2.37.65-.62,1.39-1.05,2.22-1.31.83-.26,1.7-.38,2.6-.38.85,0,1.67.11,2.44.32s1.42.56,1.94,1.05.93,1.07,1.21,1.75c.28.68.42,1.44.42,2.28,0,.39-.04.8-.13,1.22h-9.21c-.02.32-.02.57-.02.75,0,.56.1,1.08.29,1.55.19.47.47.87.84,1.19.37.33.81.57,1.32.72.51.16,1.01.23,1.51.23.58,0,1.2-.06,1.88-.19.67-.13,1.48-.34,2.41-.64ZM56.11,73.36h5.88c0-.39-.01-.68-.04-.88-.03-.19-.08-.41-.17-.66-.09-.25-.21-.46-.36-.65-.15-.19-.33-.34-.53-.47-.2-.13-.43-.22-.7-.29s-.55-.1-.85-.1c-.35,0-.69.05-1.02.16s-.63.27-.91.48c-.28.21-.5.44-.67.7-.17.26-.3.51-.38.74s-.17.56-.25.96Z"/>
        <path class="cls-1" d="M70.59,81.29l-1.47-4.46-2.11-6.13-.79-2.19c.64.02,1.23.03,1.77.03s1.04,0,1.61-.03l2.91,9.42,3.33-9.42c.63.02,1.23.03,1.8.03.6,0,1.18,0,1.72-.03l2.16,8.31c.03.13.11.49.26,1.11l.29-.83s.09-.21.24-.59l1.95-4.94,1.16-3.05c.64.02,1.18.03,1.65.03.38,0,.95,0,1.71-.03l-3.45,7.89c-.75,1.69-1.44,3.32-2.07,4.89-.7-.02-1.26-.03-1.66-.03s-1.06,0-1.91.03l-2.3-9.15c-.13.33-.38,1.02-.75,2.09l-2.55,7.06c-.71-.02-1.25-.03-1.62-.03-.41,0-1.03,0-1.85.03Z"/>
        <path class="cls-1" d="M89.62,81.29c.13-1.26.22-2.31.27-3.15.09-1.34.16-2.89.22-4.64.06-1.75.11-3.41.13-4.99.82.02,1.43.03,1.84.03.37,0,.98,0,1.82-.03-.11,1.46-.2,2.85-.27,4.17-.07,1.32-.12,2.84-.15,4.55-.03,1.71-.05,3.06-.05,4.06-.76-.02-1.38-.03-1.84-.03-.44,0-1.09,0-1.97.03ZM90.31,66.33c.03-.86.05-1.52.05-1.99v-.4c.76.02,1.38.02,1.86.02.65,0,1.26,0,1.82-.02-.02.21-.04.45-.05.72l-.06,1.67c-.64-.02-1.22-.02-1.76-.02s-1.16,0-1.86.02Z"/>
        <path class="cls-1" d="M96.4,81.29c.19-1.9.35-4.04.48-6.41.13-2.37.2-4.49.22-6.37.77.02,1.39.03,1.85.03.55,0,1.12,0,1.74-.03l-.14,2.14c.26-.37.49-.66.68-.88.2-.22.45-.43.75-.64.31-.21.63-.38.98-.5.35-.13.74-.23,1.17-.3.43-.08.88-.11,1.35-.11.75,0,1.46.09,2.14.28.68.19,1.23.49,1.65.9s.7.86.83,1.34c.13.49.2,1,.2,1.55,0,.23-.01.59-.04,1.08l-.26,5.49c-.03.76-.05,1.58-.06,2.44-.66-.02-1.23-.03-1.7-.03-.64,0-1.28,0-1.92.03.07-.73.15-2,.25-3.81.1-1.81.15-3.01.15-3.6,0-.66-.1-1.19-.31-1.6-.21-.4-.53-.71-.97-.92-.44-.21-.91-.31-1.42-.31s-.97.1-1.41.29c-.44.19-.81.47-1.13.84-.33.38-.59.84-.78,1.39-.19.59-.33,1.55-.43,2.9-.08,1.2-.15,2.8-.2,4.81-.65-.02-1.23-.03-1.75-.03s-1.17,0-1.92.03Z"/>
        <path class="cls-1" d="M125.95,81.29c-.7-.02-1.24-.03-1.62-.03-.42,0-1,0-1.73.03l.11-2.19c-.37.48-.69.85-.95,1.11-.26.26-.59.5-.98.72-.39.22-.81.39-1.26.5-.45.11-.92.16-1.41.16-.8,0-1.56-.15-2.26-.44-.7-.29-1.3-.71-1.8-1.24s-.86-1.16-1.09-1.9c-.24-.73-.35-1.5-.35-2.29,0-1.1.21-2.17.63-3.21.42-1.04.99-1.89,1.72-2.53.73-.64,1.55-1.1,2.47-1.37s1.91-.4,2.96-.4c.76,0,1.62.07,2.59.21.06-1.09.09-2.23.09-3.43v-.85c.79.02,1.39.02,1.81.02.55,0,1.16,0,1.84-.02-.18,2.13-.36,5.02-.52,8.69s-.24,6.49-.24,8.46ZM122.85,70.81c-.63-.17-1.23-.25-1.81-.25-.66,0-1.29.09-1.9.28-.6.18-1.14.5-1.6.94-.46.44-.82,1.01-1.07,1.71-.25.7-.38,1.37-.38,2.01s.12,1.24.35,1.77c.23.54.59.96,1.07,1.27.49.31,1.03.47,1.65.47.46,0,.88-.08,1.26-.25.38-.16.72-.41,1.03-.75.31-.34.57-.78.79-1.31.21-.54.37-1.25.46-2.14.06-.65.11-1.9.16-3.74Z"/>
      </g>
      <g>
        <path class="cls-1" d="M142.15,81.59h-.69s-.97-2.53-.97-2.53h-3.88c-.14.41-.29.83-.45,1.27-.16.44-.32.87-.47,1.27h-.61c.26-.68.51-1.35.76-2,.25-.65.5-1.3.75-1.95.25-.65.5-1.3.75-1.95.25-.65.51-1.32.76-2h.81s3.23,7.88,3.23,7.88ZM140.33,78.6l-1.84-4.38-1.73,4.39h3.56Z"/>
        <path class="cls-1" d="M155.58,75.79c-.05-.23-.15-.45-.3-.66s-.32-.38-.54-.53c-.22-.15-.46-.27-.75-.35-.28-.09-.58-.13-.9-.13-.46,0-.87.08-1.24.23-.37.15-.69.37-.95.66-.26.29-.46.65-.6,1.09-.14.43-.21.94-.21,1.52,0,.58.07,1.08.21,1.52.14.44.34.81.61,1.1.26.3.58.52.94.68.37.15.78.23,1.23.23.68,0,1.24-.15,1.68-.46s.71-.75.82-1.34h.6c-.06.37-.17.71-.35,1-.18.3-.4.54-.67.75-.27.2-.58.36-.93.46-.35.11-.73.16-1.14.16-.56,0-1.06-.09-1.5-.29-.44-.19-.82-.47-1.14-.82-.31-.35-.55-.78-.72-1.29-.17-.51-.25-1.07-.25-1.7,0-.62.08-1.19.25-1.68.17-.5.41-.93.72-1.28.31-.35.69-.62,1.14-.82.44-.19.94-.29,1.49-.29.38,0,.74.05,1.08.16.34.11.65.26.93.46.27.2.5.44.69.71.19.28.32.58.39.91h-.6Z"/>
        <path class="cls-1" d="M159.96,75.83c.38,0,.72.06,1.03.2.31.13.57.32.79.57s.38.56.5.92c.12.36.17.77.18,1.23,0,.47-.06.88-.17,1.25-.12.36-.28.67-.5.93-.22.25-.48.44-.78.58-.31.13-.65.2-1.02.2-.37,0-.71-.06-1.02-.19s-.57-.32-.78-.57c-.22-.25-.38-.56-.51-.92-.12-.36-.18-.78-.18-1.25,0-.46.06-.87.17-1.24.12-.36.28-.67.5-.92.22-.25.48-.44.78-.57.31-.13.65-.2,1.02-.2ZM159.97,81.12c.28,0,.54-.05.77-.15.23-.1.43-.25.6-.45.17-.2.3-.45.39-.74s.14-.64.14-1.03c0-.39-.05-.73-.14-1.03-.09-.3-.23-.54-.39-.73-.17-.19-.37-.34-.6-.44-.23-.1-.49-.15-.77-.15-.29,0-.55.05-.78.15-.23.1-.43.25-.6.44-.17.19-.3.44-.39.73-.09.3-.14.64-.13,1.03,0,.39.05.74.14,1.03.09.29.22.54.39.74.17.2.37.35.6.44.23.1.49.15.78.15Z"/>
        <path class="cls-1" d="M167.63,80.77c-.17.2-.34.36-.51.48s-.33.21-.48.28c-.16.07-.31.11-.45.13s-.29.03-.42.03c-.35,0-.66-.07-.93-.21s-.49-.33-.68-.59c-.18-.25-.32-.56-.42-.91-.09-.35-.14-.75-.14-1.19,0-.46.05-.87.17-1.24.11-.37.27-.68.47-.94.2-.26.43-.45.7-.59.27-.14.56-.21.87-.21.13,0,.27,0,.41.02.14.01.28.04.43.09.15.05.3.11.46.2.16.09.33.21.5.37v-2.84s.57,0,.57,0v7.88s-.56,0-.56,0v-.77ZM167.62,77.2c-.26-.27-.53-.47-.81-.6-.28-.13-.59-.2-.93-.2-.26,0-.49.05-.7.15-.21.1-.39.25-.54.45-.15.2-.26.45-.34.75-.08.3-.12.65-.12,1.05,0,.76.15,1.33.44,1.73.29.39.7.59,1.23.59.35,0,.66-.1.95-.29.29-.19.57-.47.83-.85v-2.78Z"/>
        <path class="cls-1" d="M170.71,81.54h-.58s0-5.58,0-5.58h.58s0,5.58,0,5.58ZM170.71,74.55h-.58s0-.9,0-.9h.58s0,.9,0,.9Z"/>
        <path class="cls-1" d="M173.12,76.78c.19-.22.37-.4.55-.53.18-.13.35-.23.53-.3.17-.07.33-.11.49-.13.15-.02.3-.03.43-.03,1.15,0,1.72.67,1.72,2.03v3.69s-.57,0-.57,0v-3.64c0-.26-.03-.48-.08-.67s-.12-.34-.22-.47c-.1-.12-.24-.21-.4-.27-.17-.06-.37-.09-.61-.09-.32,0-.63.09-.93.28-.3.19-.61.45-.9.79v4.07s-.57,0-.57,0v-5.58s.57,0,.57,0v.83Z"/>
        <path class="cls-1" d="M182.95,81.19c0,.45-.05.83-.14,1.14s-.24.57-.43.77c-.19.2-.43.34-.72.43-.29.09-.62.14-1,.14-.32,0-.6-.03-.86-.1s-.47-.17-.66-.3c-.18-.13-.33-.29-.43-.48-.1-.19-.16-.41-.18-.66h.58c.02.33.16.57.41.73.25.16.62.23,1.11.23.29,0,.54-.04.76-.11.22-.07.4-.18.54-.34.14-.16.25-.37.33-.63.07-.26.11-.58.11-.96v-.35c-.19.22-.36.4-.53.52s-.32.22-.48.29c-.15.07-.3.11-.44.12-.14.02-.28.03-.41.03-.35,0-.66-.07-.93-.21s-.49-.33-.68-.59c-.18-.25-.32-.56-.42-.91-.09-.35-.14-.75-.14-1.19,0-.46.05-.87.17-1.24.11-.37.27-.68.47-.94.2-.26.43-.45.7-.59.27-.14.56-.21.87-.21.13,0,.27,0,.42.03.14.02.29.05.45.1s.31.12.47.2c.16.09.32.2.48.33v-.53s.58,0,.58,0v5.25ZM182.37,77.18c-.26-.27-.53-.47-.81-.6-.28-.13-.59-.2-.93-.2-.26,0-.49.05-.7.15-.21.1-.39.25-.54.45-.15.2-.26.45-.34.75-.08.3-.12.65-.12,1.05,0,.76.15,1.33.44,1.73.29.39.7.59,1.23.59.35,0,.66-.1.95-.29.29-.19.57-.47.83-.85v-2.78Z"/>
        <path class="cls-1" d="M191.39,73.62h2.87c.38,0,.75.03,1.11.09.36.06.67.18.94.34s.49.39.65.67c.16.28.24.64.24,1.08,0,.77-.24,1.36-.73,1.77-.49.4-1.2.61-2.13.61h-2.36s0,3.33,0,3.33h-.58s-.01-7.88-.01-7.88ZM191.97,77.6h2.38c.4,0,.75-.04,1.03-.12.28-.08.51-.19.69-.34.18-.15.31-.33.39-.55.08-.22.12-.47.12-.76,0-.35-.06-.63-.19-.85-.12-.22-.29-.38-.5-.5-.21-.12-.45-.19-.72-.23-.27-.04-.56-.06-.86-.06h-2.35s0,3.41,0,3.41Z"/>
        <path class="cls-1" d="M201.32,76.35c-.05,0-.11-.01-.17-.01-.06,0-.13,0-.21,0-.16,0-.32.03-.47.1-.15.07-.3.16-.44.26-.14.11-.27.23-.39.37-.12.14-.22.28-.31.42v4s-.57,0-.57,0v-5.58s.57,0,.57,0v.77c.16-.19.33-.35.49-.47.16-.12.32-.21.47-.28.15-.07.3-.11.44-.13.14-.02.27-.03.38-.03.04,0,.07,0,.11,0,.03,0,.07,0,.12.01v.58Z"/>
        <path class="cls-1" d="M204.55,75.76c.38,0,.72.06,1.03.2.31.13.57.32.79.57s.38.56.5.92c.12.36.17.77.18,1.23,0,.47-.06.88-.17,1.25-.12.36-.28.67-.5.93-.22.25-.48.44-.78.58-.31.13-.65.2-1.02.2-.37,0-.71-.06-1.02-.19-.3-.13-.57-.32-.78-.57-.22-.25-.38-.56-.51-.92-.12-.36-.18-.78-.18-1.25,0-.46.06-.87.17-1.24.12-.36.28-.67.5-.92.22-.25.48-.44.78-.57.31-.13.65-.2,1.02-.2ZM204.56,81.05c.28,0,.54-.05.77-.15.23-.1.43-.25.6-.45.17-.2.3-.45.39-.74.09-.3.14-.64.14-1.03,0-.39-.05-.73-.14-1.03-.09-.3-.23-.54-.39-.73s-.37-.34-.6-.44c-.23-.1-.49-.15-.77-.15-.29,0-.55.05-.78.15-.23.1-.43.25-.6.44-.17.19-.3.44-.39.74-.09.29-.14.64-.13,1.03,0,.39.05.74.14,1.03.09.29.22.54.39.74s.37.35.6.44c.23.1.49.15.78.15Z"/>
        <path class="cls-1" d="M209.19,81.71c0,.4-.03.72-.09.97-.06.25-.15.44-.26.58-.11.14-.24.23-.4.29-.16.05-.33.08-.53.08-.16,0-.31,0-.45-.02v-.61s.06,0,.09,0h.07c.2,0,.37-.02.5-.04.13-.03.23-.09.3-.18.07-.09.12-.23.15-.4.03-.18.04-.41.04-.69v-5.79s.57,0,.57,0v5.83ZM209.18,74.49h-.58s0-.9,0-.9h.58s0,.9,0,.9Z"/>
        <path class="cls-1" d="M213.29,81.61c-.39,0-.74-.06-1.06-.2-.32-.13-.59-.32-.82-.57-.23-.25-.41-.56-.53-.92-.13-.36-.19-.78-.19-1.25,0-.45.06-.86.18-1.22.12-.36.29-.67.51-.92.22-.25.48-.45.78-.58.3-.14.64-.2,1.01-.2.38,0,.72.07,1.03.2.31.13.57.33.79.58.22.25.38.56.5.92.12.36.17.77.18,1.23v.13h-4.39c.03.39.1.72.21.99.11.28.26.51.43.69.18.18.38.32.62.41.23.09.49.14.76.14.19,0,.38-.02.58-.07.19-.05.37-.11.52-.21.16-.09.29-.21.39-.34.11-.13.17-.29.19-.46h.57c-.05.26-.15.5-.28.7-.13.2-.3.38-.5.52-.2.14-.42.25-.67.32-.25.07-.52.11-.8.11ZM215.08,78.22c-.1-.64-.32-1.12-.65-1.43-.34-.32-.76-.47-1.25-.47-.24,0-.47.04-.68.12-.21.08-.4.2-.56.35-.17.16-.3.36-.42.6-.11.24-.19.52-.24.84h3.81Z"/>
        <path class="cls-1" d="M219.33,81.6c-.37,0-.71-.06-1.01-.19-.31-.13-.57-.32-.79-.57-.22-.25-.39-.56-.51-.92-.12-.36-.18-.78-.18-1.25,0-.46.06-.87.17-1.24.12-.36.28-.67.5-.92.22-.25.48-.44.78-.57.3-.13.64-.2,1.02-.2.27,0,.52.04.75.11.23.07.44.18.62.32.18.14.33.31.45.52.12.21.21.44.26.71h-.56c-.02-.17-.08-.32-.16-.46-.08-.13-.19-.25-.33-.34-.14-.09-.29-.16-.47-.2-.18-.05-.36-.07-.57-.07-.28,0-.54.05-.78.15s-.44.25-.6.44c-.17.2-.3.44-.39.74-.09.29-.14.64-.14,1.03,0,.39.05.74.14,1.03.09.29.22.54.39.74.17.2.37.34.61.44.24.1.49.15.78.15.19,0,.37-.02.54-.07.17-.05.33-.11.46-.2.14-.09.25-.2.34-.33.09-.13.15-.29.17-.46h.56c-.05.27-.14.5-.26.71-.12.2-.27.38-.45.52s-.39.24-.62.31c-.23.07-.48.1-.75.11Z"/>
        <path class="cls-1" d="M224.49,81.5c-.08,0-.16.02-.24.02s-.16,0-.24,0c-.25,0-.45-.03-.6-.1-.15-.07-.27-.17-.35-.31s-.13-.31-.16-.52-.04-.45-.04-.73v-3.41s-.72,0-.72,0v-.58s.71,0,.71,0v-1.46s.57,0,.57,0v1.46s.92,0,.92,0v.58s-.91,0-.91,0v3.46c0,.23.02.41.06.55s.08.24.15.32c.07.07.15.12.25.14.1.02.21.03.33.03h.14s.08,0,.13,0v.55Z"/>
      </g>
      <polygon class="cls-1" points="254.01 0 234.77 .34 90.42 .34 68.69 25.13 202.52 25.13 195.49 32.37 28.38 32.37 28.38 16.79 0 45.17 28.38 73.54 28.38 57.15 136.97 57.15 148.91 71.59 178.07 71.37 166.91 57.15 171.42 57.15 199.51 57.15 208.69 57.15 251.85 2.73 254.01 .34 253.74 .34 254.01 0"/>
    </g>
  </g>
</svg>