<?xml version="1.0" encoding="UTF-8"?>
<svg id="Layer_2" data-name="Layer 2" xmlns="http://www.w3.org/2000/svg" viewBox="0 0 291.84 93.6">
  <defs>
    <style>
      .cls-1 {
        font-family: AcuminVariableConcept, 'Acumin Variable Concept';
        font-size: 6.99px;
        font-variation-settings: 'wght' 194, 'wdth' 100, 'slnt' 0;
      }

      .cls-1, .cls-2 {
        fill: #231f20;
      }

      .cls-3 {
        fill: #bcbec0;
      }

      .cls-4 {
        fill: #be1e2d;
      }

      .cls-5 {
        letter-spacing: 0em;
      }

      .cls-6 {
        letter-spacing: -.02em;
      }

      .cls-7 {
        letter-spacing: -.03em;
      }

      .cls-8 {
        letter-spacing: 0em;
      }

      .cls-9 {
        letter-spacing: 0em;
      }

      .cls-10 {
        letter-spacing: 0em;
      }

      .cls-11 {
        letter-spacing: .01em;
      }

      .cls-12 {
        letter-spacing: 0em;
      }

      .cls-13 {
        letter-spacing: 0em;
      }
    </style>
  </defs>
  <g id="Layer_1-2" data-name="Layer 1">
    <g>
      <path class="cls-4" d="M9.97,47.58H2.03c-1.12,0-2.03-.92-2.03-2.03s.92-1.98,2.03-1.98h20.19c1.12,0,1.98.86,1.98,1.98s-.86,2.03-1.98,2.03h-7.94v29.81c0,1.17-.97,2.19-2.19,2.19s-2.14-1.02-2.14-2.19v-29.81Z"/>
      <path class="cls-4" d="M45.32,44.02c.56-.61,1.17-.86,1.78-.86,1.17,0,2.14.97,2.14,2.19v32.05c0,1.17-.97,2.19-2.14,2.19s-2.19-1.02-2.19-2.19v-7.07h-9.16c-1.12,0-1.98-.86-1.98-1.98s.86-2.03,1.98-2.03h9.16v-15.52l-23.45,28.03c-.36.41-1.02.76-1.58.76-1.12,0-2.03-.92-2.03-2.03,0-.46.1-.86.51-1.32l26.96-32.2Z"/>
      <path class="cls-4" d="M54.99,61.37c0-10.22,7.99-18.31,18.11-18.31,5.7,0,10.63,2.59,13.79,6.41.41.46.61,1.02.61,1.53,0,1.17-.97,2.14-2.19,2.14-.56,0-1.17-.36-1.73-.86-2.44-3.05-6.1-5.09-10.48-5.09-7.63,0-13.63,6.26-13.63,14.19s6,14.14,13.63,14.14c4.37,0,8.04-2.03,10.48-5.04.56-.56,1.17-.86,1.73-.86,1.22,0,2.19.92,2.19,2.14,0,.46-.2,1.07-.61,1.48-3.15,3.87-8.09,6.46-13.79,6.46-10.12,0-18.11-8.09-18.11-18.31Z"/>
    </g>
    <g>
      <path class="cls-4" d="M281.87,76.99c0,1.17-.97,2.19-2.14,2.19s-2.19-1.02-2.19-2.19v-29.81s-7.94,0-7.94,0c-1.12,0-1.98-.92-1.98-2.03,0-1.12.86-1.98,1.98-1.98h20.19c1.12,0,2.03.86,2.03,1.98,0,1.12-.92,2.03-2.03,2.03h-7.94s0,29.81,0,29.81Z"/>
      <path class="cls-4" d="M273.48,75.82c.41.46.51.86.51,1.32,0,1.12-.92,2.03-2.03,2.03-.56,0-1.22-.36-1.58-.76l-23.45-28.03v15.52s9.16,0,9.16,0c1.12,0,1.98.92,1.98,2.03s-.86,1.98-1.98,1.98h-9.16s0,7.07,0,7.07c0,1.17-.97,2.19-2.19,2.19s-2.14-1.02-2.14-2.19v-32.05c0-1.22.97-2.19,2.14-2.19.61,0,1.22.25,1.78.86l26.96,32.2Z"/>
      <path class="cls-4" d="M218.75,79.27c-5.7,0-10.63-2.59-13.79-6.46-.41-.41-.61-1.02-.61-1.48,0-1.22.97-2.14,2.19-2.14.56,0,1.17.31,1.73.86,2.44,3,6.1,5.04,10.48,5.04,7.63,0,13.63-6.26,13.63-14.14,0-7.94-6-14.19-13.63-14.19-4.37,0-8.04,2.03-10.48,5.09-.56.51-1.17.86-1.73.86-1.22,0-2.19-.97-2.19-2.14,0-.51.2-1.07.61-1.53,3.15-3.82,8.09-6.41,13.79-6.41,10.12,0,18.11,8.09,18.11,18.31s-7.99,18.31-18.11,18.31Z"/>
    </g>
    <g>
      <path class="cls-2" d="M159.04,21.97c-.9-.43-1.96-.53-2.98-.18-2,.69-3.09,2.83-2.49,4.84-4.01,2.2-8.7,2.67-13.01,1.44-.82-2.15-1-4.59-.07-7.06,2.78-7.43,5.24-12.66,8.27-14.01,2.21-.98,2.77,1.81,3.8,5.4,4-1.41,9.34-2.27,15.21-2.27.04,0,.07,0,.11,0-1.64,4.69-4.7,8.86-8.85,11.83Z"/>
      <path class="cls-2" d="M103.32,11.92c-2.64-3.07-2.32-7.81,1.04-10.43,2.58-2,6.33-1.99,8.89.04,3.46,2.74,3.67,7.78.64,10.8-1.4,1.4-3.23,2.1-5.06,2.11-6.76,12.58-7.11,27.67-1.05,40.5,3.02-9.14,12.23-16.03,23.48-17.12v-.15h8.72c-.06-.47-.11-.95-.11-1.44,0-2.01.58-3.91,1.57-5.58,4.52.91,9.3.21,13.42-2.11,1.02.83,2.43,1.13,3.76.68,1.96-.67,3.03-2.74,2.51-4.71,4.9-3.57,8.43-8.62,10.18-14.28,3.68.22,7.05.79,9.91,1.6.88-2.98,1.52-5.12,3.53-4.26,3.03,1.29,5.49,6.31,8.27,13.43,1.14,2.93.6,5.83-.75,8.19,1.62,2,2.58,4.42,2.58,7.05,0,4.31-2.57,8.09-6.46,10.29,3.84,4.09,6.14,9.28,6.14,14.95,0,12.61-11.38,22.92-25.77,23.75v.06h-37.51v-.15c-12.41-1.19-22.3-9.47-24.19-20.01-.06.08-.12.16-.17.24-11.3-15.8-12.48-36.59-3.58-53.45Z"/>
    </g>
    <text class="cls-1" transform="translate(204.35 91.77)"><tspan x="0" y="0">A </tspan><tspan class="cls-7" x="6.3" y="0">P</tspan><tspan x="10.37" y="0">alend</tspan><tspan class="cls-8" x="26.59" y="0">r</tspan><tspan x="28.8" y="0">ome </tspan><tspan class="cls-13" x="43.62" y="0">C</tspan><tspan class="cls-9" x="48.34" y="0">o</tspan><tspan class="cls-5" x="52.08" y="0">ding </tspan><tspan class="cls-6" x="66.88" y="0">P</tspan><tspan class="cls-8" x="71" y="0">r</tspan><tspan class="cls-12" x="73.21" y="0">o</tspan><tspan x="76.97" y="0">j</tspan><tspan class="cls-10" x="78.46" y="0">e</tspan><tspan class="cls-11" x="82.01" y="0">c</tspan><tspan x="85.47" y="0">t</tspan></text>
    <circle class="cls-3" cx="152.38" cy="59.22" r="3.98"/>
    <path class="cls-3" d="M138.66,72.59c-2.62-2.66-3.94-6.48-3.94-11.46,0-4.08.88-7.74,2.63-10.98s4.2-5.78,7.35-7.62c3.14-1.84,6.7-2.76,10.68-2.76,4.65,0,8.28,1.3,10.91,3.89,2.62,2.59,3.94,6.34,3.94,11.26,0,4.01-.87,7.67-2.61,10.98-1.74,3.31-4.18,5.92-7.32,7.82-3.14,1.91-6.72,2.86-10.73,2.86-4.65,0-8.28-1.33-10.91-3.99ZM158.31,71.26c2.22-1.71,3.89-3.96,5.01-6.77,1.12-2.81,1.68-5.85,1.68-9.12,0-4.38-.95-7.64-2.86-9.78s-4.5-3.21-7.77-3.21c-2.98,0-5.57.84-7.77,2.53s-3.89,3.96-5.06,6.82-1.75,6.01-1.75,9.45c0,4.21.9,7.37,2.71,9.48,1.8,2.11,4.39,3.16,7.77,3.16,3.14,0,5.82-.85,8.05-2.56Z"/>
  </g>
</svg>