<?xml version="1.0" encoding="UTF-8"?>
<svg id="Layer_2" data-name="Layer 2" xmlns="http://www.w3.org/2000/svg" viewBox="0 0 291.84 93.24">
  <defs>
    <style>
      .cls-1 {
        fill: #231f20;
      }

      .cls-2 {
        fill: #be1e2d;
      }

      .cls-3 {
        fill: #f8fbfd;
      }
    </style>
  </defs>
  <g id="Layer_1-2" data-name="Layer 1">
    <g>
      <path class="cls-2" d="M9.97,47.58H2.03c-1.12,0-2.03-.92-2.03-2.03s.92-1.98,2.03-1.98h20.19c1.12,0,1.98.86,1.98,1.98s-.86,2.03-1.98,2.03h-7.94v29.81c0,1.17-.97,2.19-2.19,2.19s-2.14-1.02-2.14-2.19v-29.81Z"/>
      <path class="cls-2" d="M45.32,44.02c.56-.61,1.17-.86,1.78-.86,1.17,0,2.14.97,2.14,2.19v32.05c0,1.17-.97,2.19-2.14,2.19s-2.19-1.02-2.19-2.19v-7.07h-9.16c-1.12,0-1.98-.86-1.98-1.98s.86-2.03,1.98-2.03h9.16v-15.52l-23.45,28.03c-.36.41-1.02.76-1.58.76-1.12,0-2.03-.92-2.03-2.03,0-.46.1-.86.51-1.32l26.96-32.2Z"/>
      <path class="cls-2" d="M54.99,61.37c0-10.22,7.99-18.31,18.11-18.31,5.7,0,10.63,2.59,13.79,6.41.41.46.61,1.02.61,1.53,0,1.17-.97,2.14-2.19,2.14-.56,0-1.17-.36-1.73-.86-2.44-3.05-6.1-5.09-10.48-5.09-7.63,0-13.63,6.26-13.63,14.19s6,14.14,13.63,14.14c4.37,0,8.04-2.03,10.48-5.04.56-.56,1.17-.86,1.73-.86,1.22,0,2.19.92,2.19,2.14,0,.46-.2,1.07-.61,1.48-3.15,3.87-8.09,6.46-13.79,6.46-10.12,0-18.11-8.09-18.11-18.31Z"/>
    </g>
    <g>
      <path class="cls-2" d="M281.87,76.99c0,1.17-.97,2.19-2.14,2.19s-2.19-1.02-2.19-2.19v-29.81s-7.94,0-7.94,0c-1.12,0-1.98-.92-1.98-2.03,0-1.12.86-1.98,1.98-1.98h20.19c1.12,0,2.03.86,2.03,1.98,0,1.12-.92,2.03-2.03,2.03h-7.94s0,29.81,0,29.81Z"/>
      <path class="cls-2" d="M273.48,75.82c.41.46.51.86.51,1.32,0,1.12-.92,2.03-2.03,2.03-.56,0-1.22-.36-1.58-.76l-23.45-28.03v15.52s9.16,0,9.16,0c1.12,0,1.98.92,1.98,2.03s-.86,1.98-1.98,1.98h-9.16s0,7.07,0,7.07c0,1.17-.97,2.19-2.19,2.19s-2.14-1.02-2.14-2.19v-32.05c0-1.22.97-2.19,2.14-2.19.61,0,1.22.25,1.78.86l26.96,32.2Z"/>
      <path class="cls-2" d="M218.75,79.27c-5.7,0-10.63-2.59-13.79-6.46-.41-.41-.61-1.02-.61-1.48,0-1.22.97-2.14,2.19-2.14.56,0,1.17.31,1.73.86,2.44,3,6.1,5.04,10.48,5.04,7.63,0,13.63-6.26,13.63-14.14,0-7.94-6-14.19-13.63-14.19-4.37,0-8.04,2.03-10.48,5.09-.56.51-1.17.86-1.73.86-1.22,0-2.19-.97-2.19-2.14,0-.51.2-1.07.61-1.53,3.15-3.82,8.09-6.41,13.79-6.41,10.12,0,18.11,8.09,18.11,18.31s-7.99,18.31-18.11,18.31Z"/>
    </g>
    <g>
      <path class="cls-3" d="M159.04,21.97c-.9-.43-1.96-.53-2.98-.18-2,.69-3.09,2.83-2.49,4.84-4.01,2.2-8.7,2.67-13.01,1.44-.82-2.15-1-4.59-.07-7.06,2.78-7.43,5.24-12.66,8.27-14.01,2.21-.98,2.77,1.81,3.8,5.4,4-1.41,9.34-2.27,15.21-2.27.04,0,.07,0,.11,0-1.64,4.69-4.7,8.86-8.85,11.83Z"/>
      <path class="cls-3" d="M103.32,11.92c-2.64-3.07-2.32-7.81,1.04-10.43,2.58-2,6.33-1.99,8.89.04,3.46,2.74,3.67,7.78.64,10.8-1.4,1.4-3.23,2.1-5.06,2.11-6.76,12.58-7.11,27.67-1.05,40.5,3.02-9.14,12.23-16.03,23.48-17.12v-.15h8.72c-.06-.47-.11-.95-.11-1.44,0-2.01.58-3.91,1.57-5.58,4.52.91,9.3.21,13.42-2.11,1.02.83,2.43,1.13,3.76.68,1.96-.67,3.03-2.74,2.51-4.71,4.9-3.57,8.43-8.62,10.18-14.28,3.68.22,7.05.79,9.91,1.6.88-2.98,1.52-5.12,3.53-4.26,3.03,1.29,5.49,6.31,8.27,13.43,1.14,2.93.6,5.83-.75,8.19,1.62,2,2.58,4.42,2.58,7.05,0,4.31-2.57,8.09-6.46,10.29,3.84,4.09,6.14,9.28,6.14,14.95,0,12.61-11.38,22.92-25.77,23.75v.06h-37.51v-.15c-12.41-1.19-22.3-9.47-24.19-20.01-.06.08-.12.16-.17.24-11.3-15.8-12.48-36.59-3.58-53.45Z"/>
    </g>
    <g>
      <path class="cls-3" d="M205.54,90.08l-.62,1.69h-.38l1.8-4.89h.45l1.87,4.89h-.41l-.64-1.69h-2.06ZM207.47,89.73c-.54-1.45-.82-2.15-.92-2.48h0c-.12.37-.43,1.24-.87,2.48h1.8Z"/>
      <path class="cls-3" d="M211.33,86.88h1.75c.89,0,1.51.5,1.51,1.36s-.61,1.4-1.56,1.4h-1.31v2.13h-.38v-4.89ZM211.72,89.29h1.35c.79,0,1.12-.42,1.12-1.03,0-.66-.43-1.03-1.09-1.03h-1.38v2.06Z"/>
      <path class="cls-3" d="M217.69,91.1c0,.31.03.55.05.66h-.33c-.03-.08-.05-.24-.06-.54-.12.26-.43.62-1.15.62-.81,0-1.16-.52-1.16-1.05,0-.77.59-1.12,1.64-1.12h.66v-.36c0-.35-.1-.82-.9-.82-.71,0-.81.37-.89.66h-.35c.04-.38.28-.98,1.24-.98.8,0,1.24.33,1.24,1.1v1.81ZM217.35,89.99h-.68c-.78,0-1.26.2-1.26.8,0,.44.31.74.8.74,1,0,1.14-.66,1.14-1.42v-.13Z"/>
      <path class="cls-3" d="M218.84,91.77v-5.15h.35v5.15h-.35Z"/>
      <path class="cls-3" d="M220.42,90.06c0,.9.46,1.46,1.13,1.46s.88-.37,1.01-.66h.36c-.15.46-.52.99-1.38.99-1.06,0-1.47-.92-1.47-1.8,0-1,.5-1.86,1.52-1.86,1.08,0,1.42.93,1.42,1.59,0,.1,0,.2,0,.29h-2.57ZM222.63,89.76c0-.69-.38-1.24-1.07-1.24s-1.05.5-1.12,1.24h2.2Z"/>
      <path class="cls-3" d="M223.85,89.15c0-.31,0-.6,0-.88h.34c.01.11.02.57.01.66.15-.36.44-.75,1.16-.75.62,0,1.17.35,1.17,1.31v2.26h-.35v-2.21c0-.62-.26-1.03-.87-1.03-.83,0-1.12.69-1.12,1.45v1.78h-.35v-2.61Z"/>
      <path class="cls-3" d="M230.37,86.62v4.14c0,.34,0,.66,0,1.01h-.33c-.01-.08-.02-.41-.02-.59-.17.43-.57.67-1.17.67-.91,0-1.45-.74-1.45-1.79s.59-1.87,1.54-1.87c.7,0,.98.3,1.08.52v-2.1h.35ZM227.77,90.05c0,.96.5,1.47,1.1,1.47.92,0,1.17-.64,1.17-1.59,0-.9-.22-1.42-1.11-1.42-.69,0-1.16.55-1.16,1.53Z"/>
      <path class="cls-3" d="M231.52,89.22c0-.59,0-.84,0-.95h.34c0,.11.01.33.01.78.2-.52.65-.84,1.22-.87v.38c-.73.05-1.22.55-1.22,1.38v1.82h-.35v-2.54Z"/>
      <path class="cls-3" d="M236.56,90.01c0,.97-.54,1.84-1.58,1.84-.94,0-1.53-.78-1.53-1.83,0-1,.55-1.83,1.56-1.83.93,0,1.54.73,1.54,1.82ZM233.82,90.02c0,.83.45,1.5,1.19,1.5s1.18-.62,1.18-1.5c0-.83-.42-1.5-1.2-1.5s-1.17.66-1.17,1.5Z"/>
      <path class="cls-3" d="M237.42,89.18c0-.3,0-.63,0-.9h.34c0,.12.02.42.01.62.15-.35.47-.71,1.05-.71.49,0,.87.24,1.01.69.17-.36.52-.69,1.14-.69.54,0,1.1.31,1.1,1.28v2.3h-.35v-2.26c0-.47-.17-.98-.82-.98s-.98.55-.98,1.22v2.01h-.34v-2.25c0-.51-.15-.99-.8-.99-.68,0-1.01.6-1.01,1.31v1.92h-.35v-2.59Z"/>
      <path class="cls-3" d="M243.29,90.06c0,.9.46,1.46,1.13,1.46s.88-.37,1.01-.66h.36c-.15.46-.52.99-1.38.99-1.06,0-1.47-.92-1.47-1.8,0-1,.5-1.86,1.52-1.86,1.08,0,1.42.93,1.42,1.59,0,.1,0,.2,0,.29h-2.57ZM245.51,89.76c0-.69-.38-1.24-1.07-1.24-.72,0-1.05.5-1.12,1.24h2.19Z"/>
      <path class="cls-3" d="M252.34,90.46c-.23.78-.8,1.36-1.84,1.36-1.4,0-2.15-1.12-2.15-2.5s.73-2.52,2.15-2.52c1.05,0,1.68.59,1.84,1.4h-.38c-.22-.64-.64-1.05-1.48-1.05-1.22,0-1.73,1.11-1.73,2.17s.5,2.15,1.75,2.15c.8,0,1.2-.41,1.45-1.01h.38Z"/>
      <path class="cls-3" d="M256.09,90.01c0,.97-.54,1.84-1.58,1.84-.94,0-1.53-.78-1.53-1.83,0-1,.55-1.83,1.57-1.83.93,0,1.54.73,1.54,1.82ZM253.36,90.02c0,.83.45,1.5,1.19,1.5s1.18-.62,1.18-1.5c0-.83-.42-1.5-1.2-1.5s-1.17.66-1.17,1.5Z"/>
      <path class="cls-3" d="M259.7,86.62v4.14c0,.34,0,.66,0,1.01h-.34c-.01-.08-.02-.41-.02-.59-.17.43-.57.67-1.17.67-.91,0-1.45-.74-1.45-1.79s.59-1.87,1.54-1.87c.7,0,.98.3,1.08.52v-2.1h.35ZM257.09,90.05c0,.96.5,1.47,1.1,1.47.92,0,1.17-.64,1.17-1.59,0-.9-.22-1.42-1.11-1.42-.69,0-1.16.55-1.16,1.53Z"/>
      <path class="cls-3" d="M260.85,86.62h.35v.68h-.35v-.68ZM260.85,88.27h.35v3.49h-.35v-3.49Z"/>
      <path class="cls-3" d="M262.34,89.15c0-.31,0-.6,0-.88h.34c.01.11.02.57.01.66.15-.36.44-.75,1.16-.75.62,0,1.17.35,1.17,1.31v2.26h-.35v-2.21c0-.62-.26-1.03-.87-1.03-.83,0-1.12.69-1.12,1.45v1.78h-.35v-2.61Z"/>
      <path class="cls-3" d="M268.84,91.53c0,1.12-.5,1.71-1.51,1.71-.91,0-1.29-.51-1.37-1.04h.36c.13.48.52.71,1.03.71.91,0,1.16-.59,1.16-1.47v-.36c-.19.45-.53.7-1.17.7-.82,0-1.45-.66-1.45-1.75,0-1.17.67-1.83,1.5-1.83.71,0,1.02.33,1.12.62,0-.2.01-.45.02-.53h.33c0,.12-.01.68-.01,1.01v2.24ZM266.26,90.01c0,.83.44,1.43,1.11,1.43.87,0,1.14-.58,1.14-1.49s-.28-1.43-1.12-1.43-1.13.69-1.13,1.49Z"/>
      <path class="cls-3" d="M271.91,86.88h1.75c.89,0,1.51.5,1.51,1.36s-.61,1.4-1.56,1.4h-1.31v2.13h-.38v-4.89ZM272.3,89.29h1.35c.79,0,1.12-.42,1.12-1.03,0-.66-.43-1.03-1.09-1.03h-1.38v2.06Z"/>
      <path class="cls-3" d="M275.93,89.22c0-.59,0-.84,0-.95h.34c0,.11.01.33.01.78.2-.52.65-.84,1.22-.87v.38c-.73.05-1.22.55-1.22,1.38v1.82h-.35v-2.54Z"/>
      <path class="cls-3" d="M280.96,90.01c0,.97-.54,1.84-1.58,1.84-.94,0-1.53-.78-1.53-1.83,0-1,.55-1.83,1.56-1.83.93,0,1.54.73,1.54,1.82ZM278.22,90.02c0,.83.45,1.5,1.19,1.5s1.18-.62,1.18-1.5c0-.83-.42-1.5-1.2-1.5s-1.17.66-1.17,1.5Z"/>
      <path class="cls-3" d="M282.24,88.27v3.74c0,.94-.24,1.22-.85,1.22-.01,0-.15,0-.2-.01v-.33c.06,0,.12,0,.16,0,.5,0,.54-.28.54-.85v-3.78h.35ZM281.89,87.3v-.68h.35v.68h-.35Z"/>
      <path class="cls-3" d="M283.46,90.06c0,.9.46,1.46,1.13,1.46s.88-.37,1.01-.66h.36c-.15.46-.52.99-1.38.99-1.06,0-1.47-.92-1.47-1.8,0-1,.5-1.86,1.52-1.86,1.08,0,1.42.93,1.42,1.59,0,.1,0,.2,0,.29h-2.57ZM285.68,89.76c0-.69-.38-1.24-1.07-1.24s-1.05.5-1.12,1.24h2.2Z"/>
      <path class="cls-3" d="M289.5,90.74c-.17.62-.57,1.11-1.36,1.11-.87,0-1.5-.65-1.5-1.82,0-.96.51-1.84,1.54-1.84.89,0,1.25.63,1.31,1.12h-.36c-.1-.41-.37-.79-.96-.79-.74,0-1.16.63-1.16,1.5s.39,1.5,1.12,1.5c.51,0,.82-.26,1-.78h.36Z"/>
      <path class="cls-3" d="M289.87,88.27h.65v-1.09h.35v1.09h.83v.33h-.83v2.27c0,.39.08.62.42.62.1,0,.25,0,.36-.04v.31c-.12.05-.29.06-.43.06-.45,0-.7-.22-.7-.78v-2.43h-.65v-.33Z"/>
    </g>
    <path class="cls-1" d="M138.66,72.59c-2.62-2.66-3.94-6.48-3.94-11.46,0-4.08.88-7.74,2.63-10.98s4.2-5.78,7.35-7.62c3.14-1.84,6.7-2.76,10.68-2.76,4.65,0,8.28,1.3,10.91,3.89,2.62,2.59,3.94,6.34,3.94,11.26,0,4.01-.87,7.67-2.61,10.98-1.74,3.31-4.18,5.92-7.32,7.82-3.14,1.91-6.72,2.86-10.73,2.86-4.65,0-8.28-1.33-10.91-3.99ZM158.31,71.26c2.22-1.71,3.89-3.96,5.01-6.77,1.12-2.81,1.68-5.85,1.68-9.12,0-4.38-.95-7.64-2.86-9.78s-4.5-3.21-7.77-3.21c-2.98,0-5.57.84-7.77,2.53-2.21,1.69-3.89,3.96-5.06,6.82s-1.75,6.01-1.75,9.45c0,4.21.9,7.37,2.71,9.48,1.8,2.11,4.39,3.16,7.77,3.16,3.14,0,5.82-.85,8.05-2.56Z"/>
  </g>
</svg>